<svg width="87" height="20" viewBox="0 0 87 20" fill="none" xmlns="http://www.w3.org/2000/svg">
<path d="M13.6291 19.7062H10.4059V18.2974C9.90427 18.8524 9.3066 19.2686 8.61288 19.5568C7.91915 19.845 7.16139 19.9837 6.36094 19.9837C5.56048 19.9837 4.66397 19.8023 3.88487 19.4394C3.11643 19.0765 2.43338 18.5856 1.86772 17.9559C1.2914 17.3262 0.832473 16.6005 0.501619 15.768C0.170765 14.9355 0 14.039 0 13.0785C0 12.1179 0.170765 11.2107 0.501619 10.3676C0.832473 9.51378 1.30207 8.77736 1.91042 8.15834C2.50809 7.52865 3.23383 7.03771 4.0663 6.66417C4.89877 6.29062 5.8273 6.10918 6.83053 6.10918C7.83377 6.10918 8.74095 6.29062 9.57342 6.66417C10.4059 7.03771 11.121 7.52865 11.7293 8.15834C12.327 8.78803 12.7966 9.52445 13.1381 10.3676C13.469 11.2214 13.6397 12.1179 13.6397 13.0785V19.6849L13.6291 19.7062ZM10.2351 13.0998C10.2351 12.5662 10.1497 12.0752 9.96831 11.6056C9.78687 11.1467 9.5414 10.7411 9.23189 10.3996C8.92238 10.0581 8.55951 9.79127 8.14328 9.58849C7.72704 9.39638 7.28946 9.28965 6.81986 9.28965C6.35026 9.28965 5.91268 9.3857 5.49644 9.56714C5.08021 9.75925 4.71734 10.0261 4.40783 10.3676C4.09832 10.7091 3.85285 11.1147 3.67141 11.5736C3.48998 12.0325 3.4046 12.5448 3.4046 13.0891C3.4046 13.6334 3.48998 14.1137 3.67141 14.562C3.85285 15.0209 4.09832 15.4051 4.40783 15.7466C4.71734 16.0775 5.08021 16.3443 5.49644 16.5257C5.91268 16.7179 6.35026 16.8032 6.81986 16.8032C7.28946 16.8032 7.72704 16.7072 8.14328 16.5044C8.55951 16.3123 8.92238 16.0455 9.23189 15.7039C9.5414 15.3731 9.78687 14.9782 9.96831 14.5193C10.1497 14.071 10.2351 13.5801 10.2351 13.0678V13.0998Z" fill="white"/>
<path d="M36.3406 19.7062H32.936V11.9472C32.936 11.755 32.9146 11.5202 32.8613 11.2428C32.8079 10.9546 32.7012 10.6771 32.5304 10.4103C32.3597 10.1328 32.1142 9.90867 31.7833 9.71656C31.4525 9.52445 31.0149 9.4284 30.4386 9.4284C29.8622 9.4284 29.0618 9.6632 28.5815 10.1221C28.1012 10.581 27.8558 11.2001 27.8558 11.9472V19.7062H24.4512V11.9472C24.4512 11.755 24.4298 11.5202 24.3765 11.2428C24.3231 10.9546 24.2164 10.6771 24.0563 10.4103C23.8962 10.1328 23.6507 9.90867 23.3199 9.71656C22.989 9.52445 22.5514 9.4284 21.9751 9.4284C21.3988 9.4284 20.577 9.6632 20.1074 10.1221C19.6378 10.581 19.403 11.2001 19.403 11.9472V19.7062H15.9984V12.0325C15.9984 11.1894 16.1371 10.4103 16.4253 9.68454C16.7135 8.9588 17.1084 8.33978 17.6206 7.80614C18.1329 7.27251 18.7626 6.85627 19.499 6.55744C20.2355 6.2586 21.0573 6.10918 21.9751 6.10918C22.893 6.10918 23.6934 6.27995 24.4085 6.6108C25.1236 6.94166 25.7212 7.40058 26.2015 7.98758C26.7031 7.40058 27.3115 6.94166 28.0265 6.6108C28.7523 6.27995 29.5421 6.10918 30.4279 6.10918C31.3137 6.10918 32.1889 6.2586 32.9146 6.54676C33.6404 6.83493 34.2594 7.25116 34.7717 7.77413C35.2733 8.29709 35.6682 8.91611 35.935 9.64185C36.2018 10.3676 36.3299 11.1574 36.3299 12.0432V19.7169L36.3406 19.7062Z" fill="white"/>
<path d="M51.7093 19.7062H48.4861V18.2974C47.9845 18.8524 47.3868 19.2686 46.6931 19.5568C45.9994 19.845 45.2416 19.9837 44.4412 19.9837C43.6407 19.9837 42.7442 19.8023 41.9651 19.4394C41.1967 19.0765 40.5136 18.5856 39.948 17.9559C39.3716 17.3262 38.9127 16.6005 38.5818 15.768C38.251 14.9355 38.0802 14.039 38.0802 13.0785C38.0802 12.1179 38.251 11.2107 38.5818 10.3676C38.9127 9.51378 39.3823 8.77736 39.9906 8.15834C40.5883 7.52865 41.3141 7.03771 42.1465 6.66417C42.979 6.29062 43.9075 6.10918 44.9108 6.10918C45.914 6.10918 46.8212 6.29062 47.6536 6.66417C48.4861 7.03771 49.2012 7.52865 49.8095 8.15834C50.4072 8.78803 50.8768 9.52445 51.2183 10.3676C51.5492 11.2214 51.72 12.1179 51.72 13.0785V19.6849L51.7093 19.7062ZM48.3047 13.0998C48.3047 12.5662 48.2193 12.0752 48.0379 11.6056C47.8564 11.1467 47.611 10.7411 47.3014 10.3996C46.9919 10.0581 46.6291 9.79127 46.2128 9.58849C45.7966 9.39638 45.359 9.28965 44.8894 9.28965C44.4198 9.28965 43.9822 9.3857 43.566 9.56714C43.1498 9.75925 42.7869 10.0261 42.4774 10.3676C42.1679 10.7091 41.9224 11.1147 41.741 11.5736C41.5595 12.0325 41.4741 12.5448 41.4741 13.0891C41.4741 13.6334 41.5595 14.1137 41.741 14.562C41.9224 15.0209 42.1679 15.4051 42.4774 15.7466C42.7869 16.0775 43.1498 16.3443 43.566 16.5257C43.9822 16.7179 44.4198 16.8032 44.8894 16.8032C45.359 16.8032 45.7966 16.7072 46.2128 16.5044C46.6291 16.3123 46.9919 16.0455 47.3014 15.7039C47.611 15.3731 47.8564 14.9782 48.0379 14.5193C48.2193 14.071 48.3047 13.5801 48.3047 13.0678V13.0998Z" fill="white"/>
<path d="M65.1035 19.7062H53.513V16.7712L60.5249 9.50311H53.8011V6.44004H64.8794V9.48176L57.9955 16.6431H65.1035V19.7062Z" fill="white"/>
<path d="M72.2436 6.46138H70.2264V5.58622C70.2478 4.65769 70.4612 3.99599 70.8881 3.6011C71.3044 3.20621 71.9447 3.03544 72.7772 3.08881V0.0470857C71.8167 -0.0596414 70.9629 0.0150666 70.2264 0.271212C69.49 0.516684 68.8603 0.900901 68.3587 1.41319C67.8571 1.92548 67.4729 2.55517 67.2167 3.30226C66.9606 4.04935 66.8325 4.86048 66.8325 5.73564V19.6955H70.2371V9.72723H72.2542V6.45071L72.2436 6.46138Z" fill="white"/>
<path d="M86.5877 19.8236C85.6058 19.9303 84.752 19.8663 84.0156 19.6422C83.2792 19.4181 82.6601 19.0552 82.1585 18.5642C81.6569 18.0626 81.2833 17.4543 81.0272 16.7179C80.7711 15.9921 80.643 15.1703 80.643 14.2525V3.05679H84.0476V6.42936H86.4383V9.43907H84.0476V14.2738C84.0476 15.2023 84.261 15.8534 84.6773 16.2269C85.0935 16.6005 85.7339 16.7712 86.5984 16.7179V19.8129L86.5877 19.8236Z" fill="white"/>
<path d="M78.1242 6.44004H74.6449V19.7062H78.1242V6.44004Z" fill="white"/>
</svg>
