<svg width="101" height="22" viewBox="0 0 101 22" fill="none" xmlns="http://www.w3.org/2000/svg">
<path d="M35.9143 16.7162H35.8683L33.0479 5.45881H29.7302L26.9213 16.7162H26.8749L24.2627 5.45881H20.7718L25.1641 21.2196H28.4584L31.3597 10.4465H31.4176L34.3189 21.2196H37.6365L42.0174 5.45881H38.5264L35.9143 16.7162ZM77.6081 5.20466C73.4469 5.20466 70.9616 7.89493 70.9616 12.4096V14.3153C70.9616 18.8761 73.435 21.4858 77.5962 21.4858C81.7689 21.4858 83.85 18.9454 83.85 16.1045V15.8162H80.7176C80.7176 17.4442 79.9082 18.7141 77.6541 18.7141C75.3885 18.7141 74.2789 17.3171 74.2789 14.3153V12.4096C74.2789 9.44269 75.4 7.95305 77.6311 7.95305C79.723 7.95305 80.7172 9.33848 80.7172 10.8975H83.8496V10.7355C83.85 7.66403 81.5151 5.20466 77.6081 5.20466ZM47.3001 5.45881L42.2141 21.2196H45.4854L46.6279 17.2477H51.6195L52.7441 21.2196H56.2466L51.1726 5.45881H47.3001ZM47.3259 14.8232L49.1267 8.56479H49.1612L50.933 14.8232H47.3259ZM97.0506 5.45881V11.7866H90.6004V5.45881H87.3295V21.2196H90.6004V14.4997H97.0506V21.22H100.333V5.45881H97.0506ZM56.1891 8.18356H60.8817V21.2196H64.1415V8.18356H68.8459V5.45881H56.1891V8.18356ZM14.6389 11.4209C14.6131 8.70155 16.8616 7.39322 16.9643 7.33007C15.6878 5.45261 13.716 5.24534 13.0217 5.19342C11.249 5.06325 9.74641 6.1829 8.90727 6.1829C8.05624 6.1829 6.744 5.2217 5.35245 5.24766C3.52586 5.27517 1.84204 6.30843 0.900591 7.94336C-0.99698 11.2345 0.415987 16.1087 2.26399 18.7773C3.16816 20.0829 4.24603 21.5524 5.66256 21.4986C7.02596 21.4451 7.5411 20.6172 9.18923 20.6172C10.8362 20.6172 11.3009 21.4986 12.7425 21.4711C14.2094 21.4455 15.1393 20.1414 16.0364 18.828C17.0754 17.3148 17.5021 15.8495 17.5274 15.7701C17.4945 15.7593 14.6666 14.6752 14.6389 11.4209ZM11.9275 3.43103C12.6802 2.52329 13.187 1.2568 13.0474 0C11.964 0.0422293 10.6545 0.720997 9.87727 1.62757C9.1817 2.43225 8.57019 3.72005 8.73595 4.95399C9.9439 5.04659 11.1756 4.33993 11.9275 3.43103Z" fill="white"/>
</svg>
