<svg width="160" height="56" viewBox="0 0 160 56" fill="none" xmlns="http://www.w3.org/2000/svg">
<path d="M25.2789 12.2798V1.04688H9.64918H2.7793L2.7793 12.2798H14.0291H25.2789Z" fill="white"/>
<path d="M107.077 0.944172L107.45 8.80887H107.247C106.87 6.49572 105.963 4.61192 104.523 3.15414C102.574 1.18381 99.8969 0.195312 96.4969 0.195312C92.347 0.195312 89.0204 1.65642 86.5204 4.57531C84.0205 7.49753 82.7705 11.4049 82.7705 16.2975V23.7861C82.7705 28.7285 84.0205 32.6492 86.5204 35.5448C89.0204 38.4404 92.3437 39.8882 96.4969 39.8882C99.8969 39.8882 102.574 38.9031 104.523 36.9294C105.963 35.4749 106.87 33.5878 107.247 31.2747H107.45L107.3 39.1394V44.7641H118.327V0.944172H107.077ZM100.554 30.153C98.4536 30.153 96.8403 29.5673 95.717 28.3924C94.5903 27.2208 94.0303 25.56 94.0303 23.4133V16.6736C94.0303 14.5268 94.5936 12.866 95.717 11.6945C96.8403 10.5229 98.4536 9.93382 100.554 9.93382C102.654 9.93382 104.203 10.5229 105.353 11.6945C106.503 12.8694 107.08 14.5302 107.08 16.6736V23.4133C107.08 25.56 106.503 27.2208 105.353 28.3924C104.203 29.5673 102.604 30.153 100.554 30.153Z" fill="white"/>
<path d="M107.078 56.0019V44.7656H87.7947H84.6514L84.6547 56.0019H95.9045H107.078Z" fill="white"/>
<path d="M36.5261 17.5998V12.2812H25.2763V17.5998H16.7264C11.3265 17.5998 7.18655 18.7115 4.31326 20.9314C1.43664 23.1547 0 26.3365 0 30.4802C0 34.3244 1.21331 37.3697 3.63661 39.6163C6.0599 41.8629 9.34985 42.9878 13.4998 42.9878C17.1997 42.9878 20.163 42.0759 22.3863 40.2553C23.9396 38.9806 24.9529 37.3963 25.4196 35.4992H25.6496L25.6496 42.239H36.5261V17.5998ZM25.2763 28.3834C25.2763 30.2805 24.5629 31.8182 23.1396 32.9897C21.713 34.1646 19.903 34.7504 17.703 34.7504C15.7031 34.7504 14.1264 34.2644 12.9765 33.2893C11.8265 32.3141 11.2531 30.9795 11.2531 29.282C11.2531 27.6845 11.7765 26.3998 12.8298 25.4246C13.8798 24.4494 15.2531 23.9635 16.9564 23.9635H25.2829V28.3834H25.2763Z" fill="white"/>
<path d="M59.6819 42.9899C54.1187 42.9899 49.7688 41.4889 46.6355 38.4835C43.5022 35.4814 41.9355 31.3776 41.9355 26.1722V0.947266H53.2154V26.099C53.2154 28.4021 53.7654 30.1661 54.8687 31.3909C55.972 32.6191 57.5753 33.2314 59.6819 33.2314C61.7886 33.2314 63.3285 32.6191 64.4552 31.3909C65.5818 30.1661 66.1485 28.4021 66.1485 26.099V0.947266H77.4283V26.1722C77.4283 31.4275 75.8483 35.5446 72.6917 38.5234C69.5351 41.5022 65.1985 42.9899 59.6819 42.9899Z" fill="white"/>
<path d="M157.766 7.90463C156.276 5.40843 154.18 3.46805 151.48 2.08017C148.776 0.692279 145.557 0 141.823 0C138.09 0 134.93 0.692279 132.203 2.08017C129.477 3.46805 127.367 5.40843 125.877 7.90463C124.387 10.4008 123.644 13.3131 123.644 16.6413V26.473C123.644 29.8013 124.387 32.7135 125.877 35.2097C127.367 37.7059 129.473 39.6463 132.203 41.0342C134.93 42.4187 138.137 43.1144 141.823 43.1144C145.51 43.1144 148.78 42.4221 151.48 41.0342C154.18 39.6463 156.276 37.7059 157.766 35.2097C159.256 32.7135 160 29.8013 160 26.473V16.6413C160 13.3131 159.253 10.4008 157.766 7.90463ZM148.64 26.473C148.64 28.6431 148.06 30.3172 146.897 31.502C145.733 32.6869 144.043 33.2793 141.82 33.2793C139.597 33.2793 137.97 32.6869 136.783 31.502C135.597 30.3172 135.003 28.6397 135.003 26.473V16.6413C135.003 14.4247 135.597 12.7339 136.783 11.5724C137.97 10.4141 139.65 9.8317 141.82 9.8317C143.99 9.8317 145.733 10.4108 146.897 11.5724C148.056 12.7339 148.64 14.4214 148.64 16.6413V26.473Z" fill="white"/>
</svg>
