<svg width="102" height="25" viewBox="0 0 102 25" fill="none" xmlns="http://www.w3.org/2000/svg">
<path fill-rule="evenodd" clip-rule="evenodd" d="M17.3141 18.2952C17.3117 18.3603 17.1921 18.4358 17.1131 18.4823C14.9649 19.7207 12.8156 20.958 10.6663 22.1942C10.1319 22.502 9.59517 22.8029 9.06888 23.1201C8.90623 23.2189 8.7889 23.2154 8.62392 23.1201C5.75199 21.4599 2.87542 19.8067 0 18.1523V8.38519C0.447287 8.11218 0.89225 7.83799 1.3709 7.54639C1.43945 8.13541 1.50451 8.68842 1.56841 9.24027C1.71131 10.4718 1.85305 11.7032 1.99594 12.9336C2.09702 13.8142 2.19577 14.6948 2.30963 15.5732C2.32938 15.68 2.39095 15.773 2.48157 15.8322C4.86207 17.2113 7.24837 18.5798 9.62886 19.9577C9.76479 20.0344 9.86587 20.0112 9.9925 19.9577C12.3474 18.9563 14.7035 17.956 17.0608 16.958C17.134 16.9278 17.2083 16.9022 17.3234 16.8569C17.3234 17.3635 17.3315 17.8293 17.3141 18.2952Z" fill="white"/>
<path fill-rule="evenodd" clip-rule="evenodd" d="M20.6172 6.47351L19.3462 5.92282C17.3282 5.04916 15.3125 4.17317 13.2968 3.29603C13.1539 3.23445 13.0435 3.24491 12.9087 3.32391C10.5596 4.69017 8.20816 6.05294 5.85439 7.4099C5.69638 7.50285 5.629 7.6074 5.60809 7.79329C5.46054 9.06544 5.29441 10.3341 5.13873 11.6039C4.98421 12.8668 4.82969 14.1285 4.67634 15.3914C4.66704 15.4715 4.65078 15.5505 4.63335 15.6679C4.21163 15.425 3.80965 15.2066 3.42626 14.9615C3.35888 14.9185 3.34029 14.7593 3.34029 14.6536C3.33564 12.8691 3.33448 11.0858 3.33796 9.30245C3.34029 7.97802 3.35307 6.6559 3.35191 5.33263C3.35191 5.1572 3.42161 5.07356 3.56335 4.99223C6.34234 3.38548 9.12016 1.77641 11.8968 0.165017C11.9793 0.117384 12.0548 0.0546496 12.1338 4.57764e-05H12.1838C12.8344 0.382273 13.4827 0.767984 14.1356 1.14673C16.2326 2.36079 18.3308 3.56904 20.4255 4.78427C20.501 4.82842 20.6056 4.91439 20.6079 4.98293C20.6241 5.47321 20.6172 5.96232 20.6172 6.47351Z" fill="white"/>
<path fill-rule="evenodd" clip-rule="evenodd" d="M21.7951 19.5179C21.7951 19.6573 21.7521 19.7363 21.629 19.8071C18.9325 21.3581 16.2383 22.9137 13.5453 24.4729C13.3896 24.5635 13.2711 24.5658 13.1178 24.4787C12.7355 24.2603 12.3452 24.0581 11.9258 23.8316L12.8784 23.1217C14.699 21.7706 16.5183 20.4194 18.3435 19.0717C18.498 18.959 18.5584 18.8394 18.5584 18.6453C18.5503 15.9581 18.5479 13.2698 18.5503 10.5814C18.5503 10.3816 18.4945 10.2526 18.3307 10.1295C16.272 8.58779 14.2215 7.0368 12.1698 5.48699C12.1175 5.44865 12.0698 5.40566 12.0048 5.35106C12.4207 5.11057 12.8122 4.8724 13.2188 4.65864C13.2851 4.62262 13.4198 4.66677 13.5 4.71324C15.6539 5.95751 17.8067 7.2041 19.9584 8.45186C20.5125 8.77251 21.0644 9.09665 21.622 9.41265C21.744 9.4812 21.7916 9.55904 21.7916 9.70194H21.7905C21.7882 12.9747 21.7893 16.2463 21.7951 19.5179Z" fill="white"/>
<path fill-rule="evenodd" clip-rule="evenodd" d="M29.3073 11.0621V15.2492H40.3222V16.7258H28.4081C27.4996 16.7258 26.8373 16.0683 26.835 15.1551C26.8327 13.8481 26.835 12.5422 26.835 11.2341C26.835 10.2373 27.4856 9.58318 28.4871 9.58318C31.6855 9.58086 34.8827 9.58085 38.0799 9.58202H40.328V11.0621H29.3073Z" fill="white"/>
<path fill-rule="evenodd" clip-rule="evenodd" d="M54.2307 9.61785C53.5708 9.56441 52.9039 9.58765 52.2359 9.58765C49.4058 9.57951 46.5675 9.57951 43.7305 9.57951C42.7488 9.57951 42.0807 10.1709 42.0656 11.1142C42.0354 12.4863 42.0354 13.8595 42.0656 15.2328C42.0807 16.1378 42.7406 16.728 43.6457 16.728H54.0308C54.8894 16.728 55.5644 16.0611 55.5725 15.2014V11.1293C55.5644 10.3463 55.0125 9.68756 54.2307 9.61785ZM53.2943 14.9028V15.1863H44.352V11.0678H44.6425C47.4273 11.0678 50.2109 11.0759 52.9957 11.0596C53.2559 11.0596 53.3024 11.1363 53.3024 11.3826C53.2943 12.556 53.2943 13.7294 53.2943 14.9028Z" fill="white"/>
<path fill-rule="evenodd" clip-rule="evenodd" d="M70.8196 16.7056C70.7011 16.7149 70.6337 16.7254 70.5663 16.7254C69.7612 16.7254 68.955 16.7323 68.1498 16.7207C68.0046 16.7172 67.842 16.6696 67.7211 16.5906C66.6883 15.9168 65.6671 15.2267 64.6354 14.5551C64.5018 14.4692 64.3206 14.4146 64.1591 14.4134C62.952 14.4018 61.7438 14.4076 60.5355 14.4076H60.2497V12.9449H68.4926V11.0861H59.5666V16.7079H57.3081C57.3023 16.6266 57.293 16.5406 57.293 16.4547C57.293 14.7027 57.293 12.9519 57.293 11.2022C57.2941 10.2438 57.9389 9.58503 58.8997 9.58387C62.3258 9.57806 65.7531 9.57806 69.1803 9.58387C70.1446 9.58387 70.7778 10.2414 70.7778 11.2034C70.779 11.7634 70.779 12.3222 70.7778 12.8799C70.7755 13.7454 70.1167 14.4029 69.2477 14.4064C68.6645 14.4099 67.9849 14.4134 67.3947 14.4134C68.4949 15.1523 69.6718 15.9353 70.8196 16.7056Z" fill="white"/>
<path fill-rule="evenodd" clip-rule="evenodd" d="M86.0301 11.2663C86.0521 10.4298 85.4701 9.55498 84.3269 9.57821C83.3835 9.59331 82.4401 9.57821 81.4968 9.57821C79.0419 9.57821 76.5952 9.57821 74.1485 9.58635C73.1598 9.58635 72.5081 10.2381 72.5081 11.2198C72.4999 12.5315 72.4999 13.835 72.5081 15.1466C72.5081 16.0749 73.1668 16.7267 74.0881 16.7267H84.4187C85.3771 16.7267 86.0138 16.09 86.0138 15.1397C86.0219 13.8501 85.9917 12.5547 86.0301 11.2663ZM83.7367 15.185H74.8014C74.7933 15.0932 74.7851 15.0165 74.7851 14.948C74.7851 13.7583 74.7933 12.5617 74.7851 11.3732C74.7851 11.1966 74.8084 11.1129 75.0233 11.1129C77.8534 11.1199 80.6917 11.1199 83.5287 11.1199C83.5903 11.1199 83.6519 11.128 83.7367 11.128V15.185Z" fill="white"/>
<path fill-rule="evenodd" clip-rule="evenodd" d="M101.239 15.2396C101.226 16.0459 100.56 16.7255 99.7608 16.7255C95.8154 16.7302 91.87 16.7267 87.9246 16.7267C87.8758 16.7267 87.827 16.722 87.7608 16.7185V15.2559H98.9639C98.9639 14.7911 98.9673 14.3485 98.9569 13.907C98.9569 13.8652 98.8744 13.8048 98.8186 13.7885C98.7512 13.7665 98.6723 13.7816 98.5979 13.7816H89.4C88.373 13.7816 87.7422 13.1507 87.7422 12.1225V11.2105C87.7433 10.2555 88.3893 9.59449 89.3466 9.5852C90.2087 9.57706 91.0719 9.58403 91.9351 9.58403H101.221V11.0595H90.0588V12.3142H99.5924C100.609 12.3142 101.24 12.9439 101.24 13.9558C101.24 14.3845 101.246 14.8121 101.239 15.2396Z" fill="white"/>
</svg>
