<svg width="198" height="38" viewBox="0 0 198 38" fill="none" xmlns="http://www.w3.org/2000/svg">
<path d="M1.2574 15V3.07917H5.22557C6.02029 3.07917 6.71159 3.23159 7.29946 3.53641C7.89823 3.84124 8.36091 4.27126 8.68751 4.82647C9.0141 5.3708 9.1774 6.01311 9.1774 6.7534C9.1774 7.4828 9.00866 8.12511 8.67118 8.68033C8.34458 9.23555 7.88734 9.66557 7.29946 9.97039C6.71159 10.2752 6.02029 10.4276 5.22557 10.4276H3.29864V15H1.2574ZM3.29864 8.58235H5.22557C5.79167 8.58235 6.24346 8.41905 6.58095 8.09245C6.92932 7.75497 7.10351 7.30862 7.10351 6.7534C7.10351 6.1873 6.92932 5.74095 6.58095 5.41435C6.24346 5.08775 5.79167 4.92445 5.22557 4.92445H3.29864V8.58235ZM11.3266 15V6.01856H13.2535V7.7332H13.7597L13.1555 8.77831C13.1555 7.8094 13.3733 7.08 13.8087 6.5901C14.2442 6.10021 14.8865 5.85526 15.7356 5.85526C16.7045 5.85526 17.4666 6.15464 18.0218 6.7534C18.577 7.35216 18.8547 8.17955 18.8547 9.23555V9.88874H16.7154V9.38252C16.7154 8.80553 16.563 8.35917 16.2582 8.04346C15.9643 7.72775 15.556 7.5699 15.0335 7.5699C14.5 7.5699 14.0863 7.72775 13.7924 8.04346C13.5093 8.35917 13.3678 8.80553 13.3678 9.38252V15H11.3266ZM24.4821 15.147C23.72 15.147 23.0559 15.0054 22.4898 14.7224C21.9346 14.4285 21.4992 14.0202 21.1834 13.4976C20.8786 12.9642 20.7262 12.3382 20.7262 11.6197V9.39884C20.7262 8.68033 20.8786 8.05979 21.1834 7.53724C21.4992 7.00379 21.9346 6.59555 22.4898 6.31249C23.0559 6.01856 23.72 5.87159 24.4821 5.87159C25.255 5.87159 25.9191 6.01856 26.4743 6.31249C27.0296 6.59555 27.4596 7.00379 27.7644 7.53724C28.0801 8.05979 28.238 8.67489 28.238 9.38252V11.6197C28.238 12.3382 28.0801 12.9642 27.7644 13.4976C27.4596 14.0202 27.0296 14.4285 26.4743 14.7224C25.9191 15.0054 25.255 15.147 24.4821 15.147ZM24.4821 13.367C25.0264 13.367 25.4456 13.22 25.7395 12.9261C26.0443 12.6213 26.1967 12.1858 26.1967 11.6197V9.39884C26.1967 8.82186 26.0443 8.38639 25.7395 8.09245C25.4456 7.79852 25.0264 7.65155 24.4821 7.65155C23.9486 7.65155 23.5295 7.79852 23.2247 8.09245C22.9199 8.38639 22.7674 8.82186 22.7674 9.39884V11.6197C22.7674 12.1858 22.9199 12.6213 23.2247 12.9261C23.5295 13.22 23.9486 13.367 24.4821 13.367ZM34.2736 15.1633C33.1306 15.1633 32.2324 14.8476 31.5792 14.2162C30.926 13.5739 30.5994 12.7029 30.5994 11.6034V6.01856H32.6407V11.5871C32.6407 12.164 32.7822 12.6104 33.0652 12.9261C33.3483 13.2309 33.7511 13.3833 34.2736 13.3833C34.7853 13.3833 35.1827 13.2309 35.4657 12.9261C35.7597 12.6104 35.9066 12.164 35.9066 11.5871V6.01856H37.9479V11.6034C37.9479 12.7029 37.6158 13.5739 36.9518 14.2162C36.2877 14.8476 35.395 15.1633 34.2736 15.1633ZM43.2977 15.1633C42.405 15.1633 41.681 14.853 41.1258 14.2325C40.5815 13.612 40.3093 12.7791 40.3093 11.734V9.30087C40.3093 8.24487 40.5815 7.4066 41.1258 6.78606C41.6702 6.16553 42.3941 5.85526 43.2977 5.85526C44.038 5.85526 44.6259 6.06755 45.0613 6.49212C45.4968 6.90581 45.7145 7.47736 45.7145 8.20676L45.2573 7.7332H45.7309L45.6655 5.59398V3.07917H47.7068V15H45.7145V13.2854H45.2573L45.7145 12.8118C45.7145 13.5412 45.4968 14.1182 45.0613 14.5428C44.6259 14.9565 44.038 15.1633 43.2977 15.1633ZM44.0162 13.3997C44.5388 13.3997 44.9416 13.2473 45.2246 12.9424C45.5186 12.6267 45.6655 12.1913 45.6655 11.636V9.38252C45.6655 8.8273 45.5186 8.39728 45.2246 8.09245C44.9416 7.77674 44.5388 7.61889 44.0162 7.61889C43.4937 7.61889 43.0854 7.7713 42.7915 8.07612C42.4975 8.38095 42.3506 8.81641 42.3506 9.38252V11.636C42.3506 12.2021 42.4975 12.6376 42.7915 12.9424C43.0854 13.2473 43.4937 13.3997 44.0162 13.3997ZM55.2285 15C54.6406 15 54.1235 14.8802 53.6771 14.6407C53.2417 14.4012 52.8987 14.0638 52.6484 13.6283C52.398 13.1819 52.2728 12.6703 52.2728 12.0933V4.92445H49.3987V3.07917H54.314V12.0933C54.314 12.4199 54.4065 12.6812 54.5916 12.8771C54.7876 13.0622 55.0488 13.1547 55.3754 13.1547H58.0862V15H55.2285ZM61.4601 17.9394L62.7175 14.5101L59.3699 6.01856H61.6071L63.2727 10.6073C63.3598 10.8576 63.4469 11.1625 63.534 11.5217C63.6211 11.8701 63.6864 12.1586 63.73 12.3872C63.7844 12.1586 63.8552 11.8701 63.9423 11.5217C64.0294 11.1625 64.1164 10.8576 64.2035 10.6073L65.7712 6.01856H67.9268L63.5993 17.9394H61.4601ZM79.1816 15V6.01856H80.8473V7.22697H81.1902L80.9126 7.52091C80.9126 7.02012 81.0541 6.61732 81.3372 6.31249C81.6202 6.00767 81.9849 5.85526 82.4313 5.85526C82.9103 5.85526 83.2804 6.05122 83.5417 6.44313C83.8139 6.83505 83.95 7.36305 83.95 8.02713L83.5907 7.22697H84.1459L83.9336 7.52091C83.9336 7.02012 84.0752 6.61732 84.3582 6.31249C84.6413 6.00767 85.0168 5.85526 85.485 5.85526C86.0402 5.85526 86.4811 6.0621 86.8077 6.47579C87.1343 6.88948 87.2976 7.45014 87.2976 8.15777V15H85.5013V8.23942C85.5013 7.94548 85.436 7.71687 85.3053 7.55357C85.1747 7.37938 84.9842 7.29229 84.7338 7.29229C84.4943 7.29229 84.3038 7.37394 84.1622 7.53724C84.0316 7.70054 83.9663 7.9346 83.9663 8.23942V15H82.4966V8.23942C82.4966 7.9346 82.4313 7.70054 82.3006 7.53724C82.17 7.37394 81.9795 7.29229 81.7291 7.29229C81.4787 7.29229 81.2882 7.37394 81.1575 7.53724C81.0378 7.70054 80.9779 7.9346 80.9779 8.23942V15H79.1816ZM92.0269 15.1633C91.1015 15.1633 90.3721 14.9184 89.8387 14.4285C89.3052 13.9386 89.0385 13.2799 89.0385 12.4525C89.0385 11.5707 89.3324 10.8903 89.9203 10.4113C90.5082 9.93229 91.341 9.69278 92.4188 9.69278H94.656V8.92528C94.656 8.48981 94.5145 8.15233 94.2314 7.91282C93.9484 7.66243 93.5619 7.53724 93.072 7.53724C92.6256 7.53724 92.2555 7.63522 91.9616 7.83118C91.6676 8.02713 91.4934 8.29386 91.439 8.63134H89.4468C89.5447 7.78219 89.9258 7.10722 90.5898 6.60643C91.2539 6.10565 92.1031 5.85526 93.1373 5.85526C94.2369 5.85526 95.1023 6.13287 95.7338 6.68808C96.3761 7.23241 96.6972 7.9727 96.6972 8.90895V15H94.7213V13.4323H94.3947L94.7213 12.9914C94.7213 13.6555 94.4764 14.1835 93.9865 14.5754C93.4966 14.9673 92.8434 15.1633 92.0269 15.1633ZM92.6964 13.6283C93.2734 13.6283 93.7415 13.4813 94.1008 13.1874C94.4709 12.8934 94.656 12.5124 94.656 12.0443V10.9502H92.4515C92.0378 10.9502 91.7057 11.0699 91.4553 11.3094C91.2049 11.5489 91.0797 11.8647 91.0797 12.2566C91.0797 12.6812 91.2213 13.0186 91.5043 13.269C91.7983 13.5085 92.1956 13.6283 92.6964 13.6283ZM102.047 15.1633C101.154 15.1633 100.43 14.853 99.8752 14.2325C99.3308 13.612 99.0587 12.7791 99.0587 11.734V9.30087C99.0587 8.24487 99.3308 7.4066 99.8752 6.78606C100.42 6.16553 101.143 5.85526 102.047 5.85526C102.787 5.85526 103.375 6.06755 103.811 6.49212C104.246 6.90581 104.464 7.47736 104.464 8.20676L104.007 7.7332H104.48L104.415 5.59398V3.07917H106.456V15H104.464V13.2854H104.007L104.464 12.8118C104.464 13.5412 104.246 14.1182 103.811 14.5428C103.375 14.9565 102.787 15.1633 102.047 15.1633ZM102.766 13.3997C103.288 13.3997 103.691 13.2473 103.974 12.9424C104.268 12.6267 104.415 12.1913 104.415 11.636V9.38252C104.415 8.8273 104.268 8.39728 103.974 8.09245C103.691 7.77674 103.288 7.61889 102.766 7.61889C102.243 7.61889 101.835 7.7713 101.541 8.07612C101.247 8.38095 101.1 8.81641 101.1 9.38252V11.636C101.1 12.2021 101.247 12.6376 101.541 12.9424C101.835 13.2473 102.243 13.3997 102.766 13.3997ZM112.622 15.1633C111.86 15.1633 111.196 15.0163 110.63 14.7224C110.064 14.4285 109.623 14.0202 109.307 13.4976C109.003 12.9642 108.85 12.3437 108.85 11.636V9.38252C108.85 8.67489 109.003 8.05979 109.307 7.53724C109.623 7.00379 110.064 6.5901 110.63 6.29616C111.196 6.00223 111.86 5.85526 112.622 5.85526C113.374 5.85526 114.027 6.00223 114.582 6.29616C115.148 6.5901 115.584 7.00379 115.888 7.53724C116.204 8.05979 116.362 8.67489 116.362 9.38252V10.9992H110.826V11.636C110.826 12.2675 110.979 12.7465 111.283 13.0731C111.588 13.3888 112.04 13.5466 112.639 13.5466C113.096 13.5466 113.466 13.4704 113.749 13.318C114.032 13.1547 114.212 12.9207 114.288 12.6158H116.297C116.144 13.3888 115.731 14.0093 115.056 14.4774C114.392 14.9347 113.58 15.1633 112.622 15.1633ZM114.386 9.85608V9.36619C114.386 8.74565 114.239 8.27208 113.945 7.94548C113.651 7.608 113.21 7.43926 112.622 7.43926C112.035 7.43926 111.588 7.608 111.283 7.94548C110.979 8.28297 110.826 8.76198 110.826 9.38252V9.72544L114.533 9.69278L114.386 9.85608ZM1.24107 34V32.1384H4.37641V26.8638H1.64932V25.0186H6.336V32.1384H9.11208V34H1.24107ZM5.19291 23.5162C4.77922 23.5162 4.45262 23.4128 4.21311 23.2059C3.97361 22.9882 3.85386 22.6997 3.85386 22.3405C3.85386 21.9812 3.97361 21.6981 4.21311 21.4913C4.45262 21.2736 4.77922 21.1647 5.19291 21.1647C5.6066 21.1647 5.9332 21.2736 6.1727 21.4913C6.41221 21.6981 6.53196 21.9812 6.53196 22.3405C6.53196 22.6997 6.41221 22.9882 6.1727 23.2059C5.9332 23.4128 5.6066 23.5162 5.19291 23.5162ZM11.049 34V25.0186H13.0412V26.7332H13.5964L13.0412 27.2068C13.0412 26.4665 13.2535 25.8895 13.6781 25.4758C14.1135 25.0621 14.7069 24.8553 15.458 24.8553C16.3398 24.8553 17.042 25.1492 17.5646 25.7371C18.098 26.3249 18.3648 27.1142 18.3648 28.1049V34H16.3235V28.3172C16.3235 27.7729 16.182 27.3537 15.8989 27.0598C15.6159 26.7659 15.2185 26.6189 14.7069 26.6189C14.2061 26.6189 13.8087 26.7713 13.5148 27.0761C13.2317 27.3809 13.0902 27.8164 13.0902 28.3825V34H11.049ZM34.3063 34.1633C33.4898 34.1633 32.7822 34.0272 32.1834 33.7551C31.5847 33.4829 31.122 33.0964 30.7954 32.5956C30.4797 32.084 30.3164 31.4852 30.3055 30.7993H32.3467C32.3467 31.2892 32.5209 31.6757 32.8693 31.9588C33.2285 32.2309 33.713 32.367 34.3226 32.367C34.9105 32.367 35.3678 32.2309 35.6943 31.9588C36.0318 31.6866 36.2006 31.311 36.2006 30.832C36.2006 30.4292 36.0808 30.0808 35.8413 29.7869C35.6127 29.4821 35.2807 29.2752 34.8452 29.1664L33.4735 28.7908C32.5372 28.5513 31.8133 28.1212 31.3016 27.5007C30.8008 26.8802 30.5504 26.129 30.5504 25.2472C30.5504 24.5722 30.7028 23.9843 31.0077 23.4835C31.3125 22.9828 31.7425 22.5963 32.2977 22.3241C32.8638 22.052 33.5279 21.9159 34.29 21.9159C35.444 21.9159 36.3584 22.2153 37.0334 22.814C37.7084 23.4019 38.0513 24.1966 38.0622 25.1982H36.0209C36.0209 24.7301 35.8685 24.3654 35.5637 24.1041C35.2589 23.8319 34.8289 23.6958 34.2736 23.6958C33.7402 23.6958 33.3265 23.821 33.0326 24.0714C32.7386 24.3218 32.5917 24.6756 32.5917 25.1329C32.5917 25.5466 32.7005 25.9004 32.9183 26.1943C33.1469 26.4774 33.4735 26.6788 33.8981 26.7985L35.3188 27.1904C36.2659 27.4299 36.9899 27.86 37.4906 28.4805C37.9914 29.0901 38.2418 29.8468 38.2418 30.7504C38.2418 31.4253 38.0785 32.0241 37.7519 32.5466C37.4253 33.0583 36.9681 33.4557 36.3802 33.7387C35.7923 34.0218 35.101 34.1633 34.3063 34.1633ZM40.8645 34L39.4928 25.0186H41.1911L41.9423 30.5217C41.9859 30.8374 42.024 31.1858 42.0566 31.5668C42.1002 31.9479 42.1328 32.2636 42.1546 32.514C42.1873 32.2636 42.2308 31.9479 42.2852 31.5668C42.3397 31.1858 42.3887 30.8374 42.4322 30.5217L43.2814 25.0186H44.8654L45.6982 30.5217C45.7417 30.8374 45.7907 31.1913 45.8452 31.5832C45.8996 31.9642 45.9431 32.2799 45.9758 32.5303C45.9976 32.269 46.0302 31.9479 46.0738 31.5668C46.1282 31.1749 46.1718 30.8266 46.2044 30.5217L47.0046 25.0186H48.6376L47.2332 34H45.1266L44.3428 28.4642C44.2993 28.1593 44.2503 27.8219 44.1958 27.4517C44.1414 27.0707 44.0979 26.7604 44.0652 26.5209C44.0325 26.7604 43.989 27.0707 43.9346 27.4517C43.891 27.8219 43.842 28.1593 43.7876 28.4642L42.9711 34H40.8645ZM50.1989 34V32.1384H53.3342V26.8638H50.6071V25.0186H55.2938V32.1384H58.0699V34H50.1989ZM54.1507 23.5162C53.737 23.5162 53.4104 23.4128 53.1709 23.2059C52.9314 22.9882 52.8117 22.6997 52.8117 22.3405C52.8117 21.9812 52.9314 21.6981 53.1709 21.4913C53.4104 21.2736 53.737 21.1647 54.1507 21.1647C54.5644 21.1647 54.891 21.2736 55.1305 21.4913C55.37 21.6981 55.4898 21.9812 55.4898 22.3405C55.4898 22.6997 55.37 22.9882 55.1305 23.2059C54.891 23.4128 54.5644 23.5162 54.1507 23.5162ZM64.6281 34C63.7681 34 63.0931 33.7605 62.6032 33.2815C62.1242 32.8025 61.8847 32.1438 61.8847 31.3056V26.8638H59.4515V25.0186H61.8847V22.4874H63.9423V25.0186H67.3879V26.8638H63.9423V31.3056C63.9423 31.8717 64.2199 32.1547 64.7751 32.1547H67.2246V34H64.6281ZM69.8146 34V32.1547L74.5013 26.8148H69.9616V25.0186H76.8855V26.8638L72.1498 32.2037H77.0651V34H69.8146ZM83.2478 34.1633C82.4857 34.1633 81.8216 34.0163 81.2555 33.7224C80.6894 33.4285 80.2485 33.0202 79.9328 32.4976C79.628 31.9642 79.4756 31.3437 79.4756 30.636V28.3825C79.4756 27.6749 79.628 27.0598 79.9328 26.5372C80.2485 26.0038 80.6894 25.5901 81.2555 25.2962C81.8216 25.0022 82.4857 24.8553 83.2478 24.8553C83.9989 24.8553 84.6521 25.0022 85.2074 25.2962C85.7735 25.5901 86.2089 26.0038 86.5138 26.5372C86.8295 27.0598 86.9873 27.6749 86.9873 28.3825V29.9992H81.4515V30.636C81.4515 31.2675 81.6039 31.7465 81.9087 32.0731C82.2135 32.3888 82.6653 32.5466 83.2641 32.5466C83.7213 32.5466 84.0915 32.4704 84.3745 32.318C84.6576 32.1547 84.8372 31.9207 84.9134 31.6158H86.922C86.7696 32.3888 86.3559 33.0093 85.6809 33.4774C85.0168 33.9347 84.2058 34.1633 83.2478 34.1633ZM85.0114 28.8561V28.3662C85.0114 27.7456 84.8644 27.2721 84.5705 26.9455C84.2766 26.608 83.8356 26.4393 83.2478 26.4393C82.6599 26.4393 82.2135 26.608 81.9087 26.9455C81.6039 27.283 81.4515 27.762 81.4515 28.3825V28.7254L85.1584 28.6928L85.0114 28.8561ZM89.659 34V25.0186H91.586V26.7332H92.0922L91.488 27.7783C91.488 26.8094 91.7057 26.08 92.1412 25.5901C92.5766 25.1002 93.219 24.8553 94.0681 24.8553C95.037 24.8553 95.7991 25.1546 96.3543 25.7534C96.9095 26.3522 97.1871 27.1795 97.1871 28.2355V28.8887H95.0479V28.3825C95.0479 27.8055 94.8955 27.3592 94.5907 27.0435C94.2967 26.7278 93.8885 26.5699 93.3659 26.5699C92.8325 26.5699 92.4188 26.7278 92.1249 27.0435C91.8418 27.3592 91.7003 27.8055 91.7003 28.3825V34H89.659ZM104.186 34C103.598 34 103.081 33.8802 102.635 33.6407C102.199 33.4012 101.857 33.0638 101.606 32.6283C101.356 32.1819 101.231 31.6703 101.231 31.0933V23.9245H98.3565V22.0792H103.272V31.0933C103.272 31.4199 103.364 31.6812 103.549 31.8771C103.745 32.0622 104.007 32.1547 104.333 32.1547H107.044V34H104.186ZM111.61 34.1633C110.685 34.1633 109.955 33.9184 109.422 33.4285C108.888 32.9386 108.622 32.2799 108.622 31.4525C108.622 30.5707 108.916 29.8903 109.503 29.4113C110.091 28.9323 110.924 28.6928 112.002 28.6928H114.239V27.9253C114.239 27.4898 114.098 27.1523 113.815 26.9128C113.531 26.6624 113.145 26.5372 112.655 26.5372C112.209 26.5372 111.839 26.6352 111.545 26.8312C111.251 27.0271 111.077 27.2939 111.022 27.6313H109.03C109.128 26.7822 109.509 26.1072 110.173 25.6064C110.837 25.1056 111.686 24.8553 112.72 24.8553C113.82 24.8553 114.685 25.1329 115.317 25.6881C115.959 26.2324 116.28 26.9727 116.28 27.9089V34H114.304V32.4323H113.978L114.304 31.9914C114.304 32.6555 114.059 33.1835 113.57 33.5754C113.08 33.9673 112.426 34.1633 111.61 34.1633ZM112.28 32.6283C112.857 32.6283 113.325 32.4813 113.684 32.1874C114.054 31.8934 114.239 31.5124 114.239 31.0443V29.9502H112.035C111.621 29.9502 111.289 30.0699 111.038 30.3094C110.788 30.5489 110.663 30.8647 110.663 31.2566C110.663 31.6812 110.804 32.0186 111.087 32.269C111.381 32.5085 111.779 32.6283 112.28 32.6283ZM118.756 34V25.0186H120.748V26.7332H121.304L120.748 27.2068C120.748 26.4665 120.961 25.8895 121.385 25.4758C121.821 25.0621 122.414 24.8553 123.165 24.8553C124.047 24.8553 124.749 25.1492 125.272 25.7371C125.805 26.3249 126.072 27.1142 126.072 28.1049V34H124.031V28.3172C124.031 27.7729 123.889 27.3537 123.606 27.0598C123.323 26.7659 122.926 26.6189 122.414 26.6189C121.913 26.6189 121.516 26.7713 121.222 27.0761C120.939 27.3809 120.797 27.8164 120.797 28.3825V34H118.756ZM131.422 34.1633C130.529 34.1633 129.805 33.853 129.25 33.2325C128.706 32.612 128.433 31.7791 128.433 30.734V28.3009C128.433 27.2449 128.706 26.4066 129.25 25.7861C129.794 25.1655 130.518 24.8553 131.422 24.8553C132.162 24.8553 132.75 25.0675 133.185 25.4921C133.621 25.9058 133.839 26.4774 133.839 27.2068L133.381 26.7332H133.855L133.79 24.594V22.0792H135.831V34H133.839V32.2854H133.381L133.839 31.8118C133.839 32.5412 133.621 33.1182 133.185 33.5428C132.75 33.9565 132.162 34.1633 131.422 34.1633ZM132.14 32.3997C132.663 32.3997 133.066 32.2473 133.349 31.9424C133.643 31.6267 133.79 31.1913 133.79 30.636V28.3825C133.79 27.8273 133.643 27.3973 133.349 27.0925C133.066 26.7767 132.663 26.6189 132.14 26.6189C131.618 26.6189 131.209 26.7713 130.916 27.0761C130.622 27.3809 130.475 27.8164 130.475 28.3825V30.636C130.475 31.2021 130.622 31.6376 130.916 31.9424C131.209 32.2473 131.618 32.3997 132.14 32.3997Z" fill="#EAEAEA"/>
<rect x="148.328" y="3.40234" width="49.6701" height="31.299" fill="#C50017"/>
<path d="M176.452 16.1055H183.027V21.999H176.452V28.5781H170.559V21.999H163.976V16.1055H170.559V9.52637H176.452V16.1055Z" fill="#EAEAEA"/>
</svg>
