<svg width="119" height="33" viewBox="0 0 119 33" fill="none" xmlns="http://www.w3.org/2000/svg">
<path d="M30.82 16.13C30.62 15.73 30.1 15.41 29.66 15.41H28.76C28.32 15.41 27.8 15.74 27.61 16.13L20.48 31.01C20.28 31.4 20.5 31.69 20.94 31.69H22.59C23.24 31.69 23.54 31.39 23.71 31.03C23.89 30.67 24.28 29.88 24.35 29.72C24.45 29.5 24.76 29.37 25.21 29.37H32.88C33.32 29.37 33.61 29.45 33.74 29.72C33.83 29.89 34.22 30.6 34.41 30.98C34.6 31.37 34.93 31.68 35.56 31.68H37.95C38.39 31.68 38.59 31.34 38.43 31.03C38.27 30.73 30.82 16.13 30.82 16.13ZM26.32 27.07C25.88 27.07 25.67 26.74 25.86 26.34L28.67 20.33C28.86 19.93 29.16 19.93 29.34 20.33L32.07 26.34C32.25 26.74 32.04 27.07 31.6 27.07H26.32ZM85.87 16.24V31C85.87 31.41 86.23 31.68 86.67 31.68H88.62C89.06 31.68 89.42 31.4 89.42 30.96V16.21C89.42 15.77 89.13 15.41 88.69 15.41H86.67C86.23 15.41 85.87 15.68 85.87 16.24ZM53.25 25.49C53 25.13 53.14 24.73 53.56 24.6C53.56 24.6 55.24 24.1 56.05 23.37C56.86 22.65 57.26 21.6 57.26 20.24C57.26 19.35 57.1 18.6 56.79 17.99C56.48 17.38 56.04 16.89 55.46 16.5C54.88 16.12 54.19 15.84 53.38 15.66C52.57 15.49 51.48 15.43 51.48 15.43C51.04 15.41 50.32 15.39 49.88 15.39H41.79C41.35 15.39 40.99 15.75 40.99 16.19V30.94C40.99 31.38 41.35 31.66 41.79 31.66H43.7C44.14 31.66 44.5 31.38 44.5 30.94V25.07C44.5 25.07 44.51 25.07 44.51 25.06L48.14 25.05C48.58 25.05 49.15 25.35 49.41 25.71L53.18 31.01C53.53 31.48 53.86 31.66 54.3 31.66H56.8C57.24 31.66 57.31 31.24 57.16 31.03C57 30.84 53.25 25.49 53.25 25.49ZM51.72 22.49C51.22 22.6 50.67 22.63 50.67 22.63C50.23 22.65 49.51 22.66 49.07 22.66H45.32C44.88 22.66 44.52 22.3 44.52 21.86V18.87C44.52 18.43 44.88 18.07 45.32 18.07H49.07C49.51 18.07 50.23 18.09 50.67 18.1C50.67 18.1 51.23 18.12 51.72 18.24C52.22 18.35 52.61 18.51 52.9 18.72C53.19 18.93 53.4 19.17 53.52 19.45C53.64 19.73 53.71 20.03 53.71 20.37C53.71 20.7 53.65 21.01 53.52 21.29C53.4 21.57 53.19 21.81 52.9 22.02C52.61 22.22 52.22 22.38 51.72 22.49ZM109.78 15.41C109.34 15.41 108.98 15.7 108.98 16.13V25.57C108.98 26.01 108.73 26.11 108.42 25.8L98.97 16C98.66 15.68 98.21 15.42 97.61 15.42H95.83C95.27 15.42 95.03 15.72 95.03 16.02V31.11C95.03 31.41 95.32 31.7 95.76 31.7H97.54C97.98 31.7 98.29 31.46 98.29 31.05L98.3 21.11C98.3 20.67 98.55 20.57 98.86 20.89L108.72 31.13C109.03 31.44 109.41 31.7 110.09 31.7H111.43C111.87 31.7 112.23 31.34 112.23 30.9V16.21C112.23 15.77 111.87 15.41 111.43 15.41H109.78ZM71.24 24.61C71.03 25 70.67 24.99 70.46 24.61L65.84 16.13C65.64 15.74 65.24 15.41 64.68 15.41H62.17C61.73 15.41 61.37 15.77 61.37 16.21V30.95C61.37 31.39 61.66 31.69 62.17 31.69H63.73C64.17 31.69 64.49 31.41 64.49 30.99C64.49 30.79 64.5 20.27 64.51 20.27C64.53 20.27 70.28 30.98 70.28 30.98C70.49 31.37 71 31.37 71.21 30.98C71.21 30.98 77.01 20.29 77.02 20.29C77.04 20.29 77.03 30.67 77.03 30.98C77.03 31.41 77.37 31.68 77.81 31.68H79.6C80.04 31.68 80.4 31.46 80.4 30.88V16.21C80.4 15.77 80.04 15.41 79.6 15.41H77.2C76.59 15.41 76.22 15.72 76 16.11L71.24 24.61ZM0 23.53C0 31.48 8.13 31.88 9.76 31.88C15.16 31.88 17.44 30.42 17.53 30.36C17.87 30.17 18.28 29.78 18.28 29.06V23.57C18.28 23.06 17.87 22.65 17.36 22.65H10.58C10.07 22.65 9.74 23.06 9.74 23.57V24.14C9.74 24.65 10.07 25.06 10.58 25.06H14.5C14.88 25.06 15.19 25.37 15.19 25.75V28.31C14.42 28.63 10.89 29.66 8.05 28.98C3.94 28 3.62 24.6 3.62 23.59C3.62 22.74 3.88 18.46 8.93 18.03C13.02 17.68 15.71 19.33 15.74 19.35C16.22 19.6 16.72 19.42 16.99 18.91L17.5 17.88C17.71 17.46 17.64 17.02 17.12 16.67C17.09 16.65 14.22 15.1 9.77 15.1C0.27 15.09 0 22.67 0 23.53ZM108.88 11.34H98.23C97.84 11.34 97.5 11.15 97.31 10.81C97.12 10.47 97.12 10.09 97.31 9.75L102.64 0.53C102.83 0.19 103.17 0 103.56 0C103.95 0 104.29 0.19 104.48 0.53L109.81 9.75C110.01 10.09 110.01 10.47 109.81 10.81C109.6 11.15 109.27 11.34 108.88 11.34ZM116.2 28.3C117.22 28.3 118.06 29.13 118.06 30.16C118.06 31.18 117.23 32.02 116.2 32.02C115.18 32.02 114.34 31.19 114.34 30.16C114.34 29.14 115.18 28.3 116.2 28.3ZM116.21 31.74C117.06 31.74 117.71 31.05 117.71 30.16C117.71 29.27 117.07 28.58 116.21 28.58C115.35 28.58 114.7 29.27 114.7 30.16C114.7 31.05 115.34 31.74 116.21 31.74ZM115.49 29.07H116.32C116.82 29.07 117.07 29.27 117.07 29.68C117.07 30.03 116.85 30.28 116.51 30.28L117.13 31.24H116.75L116.14 30.28H115.84V31.24H115.48V29.07H115.49ZM115.85 30H116.27C116.54 30 116.72 29.94 116.72 29.66C116.72 29.41 116.5 29.34 116.27 29.34H115.85V30Z" fill="white"/>
</svg>
