<svg width="40" height="40" viewBox="0 0 40 40" fill="none" xmlns="http://www.w3.org/2000/svg">
<rect width="40" height="40" rx="6" fill="white"/>
<path d="M23.6953 12C26.0682 12 28 13.9308 28 16.3037V23.6953C28 26.0691 26.0682 28 23.6953 28H16.3047C13.9318 28 12 26.0691 12 23.6953V16.3037C12 13.9308 13.9318 12 16.3047 12H23.6953ZM16.3057 13.2314C14.6114 13.2314 13.2315 14.6094 13.2314 16.3037V23.6963C13.2317 25.3904 14.6115 26.7695 16.3057 26.7695H23.6963C25.3905 26.7695 26.7703 25.3904 26.7705 23.6963V16.3037C26.7704 14.6094 25.3906 13.2314 23.6963 13.2314H16.3057ZM20 16.4307C21.9676 16.4307 23.5693 18.0324 23.5693 20C23.5693 21.9684 21.9676 23.5693 20 23.5693C18.0324 23.5693 16.4307 21.9684 16.4307 20C16.4307 18.0324 18.0324 16.4307 20 16.4307ZM20.001 17.6621C18.7122 17.6623 17.6633 18.7104 17.6631 20C17.6631 21.2897 18.7121 22.3387 20.001 22.3389C21.29 22.3389 22.3398 21.2898 22.3398 20C22.3396 18.7104 21.2899 17.6621 20.001 17.6621ZM24.0625 15.0459C24.5546 15.0461 24.9541 15.4463 24.9541 15.9385C24.9541 16.4298 24.5546 16.8299 24.0625 16.8301H24.0576C23.823 16.8301 23.5997 16.7384 23.4307 16.5693C23.2635 16.4012 23.1706 16.1784 23.1689 15.9414C23.1691 15.4486 23.5672 15.0486 24.0576 15.0459H24.0625Z" fill="#090909"/>
</svg>
