<svg width="40" height="40" viewBox="0 0 40 40" fill="none" xmlns="http://www.w3.org/2000/svg">
<rect width="40" height="40" rx="6" fill="white"/>
<path d="M23.6953 12C26.0682 12 28 13.9308 28 16.3037V23.6953C28 26.0691 26.0682 28 23.6953 28H16.3047C13.9318 28 12 26.0691 12 23.6953V16.3076C12 13.9331 13.9323 12 16.3076 12H23.6953ZM16.3086 13.2314C14.6129 13.2317 13.2326 14.6119 13.2324 16.3076V23.6963C13.2327 25.3904 14.6115 26.7695 16.3057 26.7695H23.6973C25.3913 26.7694 26.7703 25.3903 26.7705 23.6963V16.3037C26.7704 14.6095 25.3914 13.2316 23.6973 13.2314H16.3086ZM16.8184 18.6455C17.158 18.6455 17.4334 18.9212 17.4336 19.2607V23.6914C17.4336 24.0311 17.1581 24.3076 16.8184 24.3076C16.4787 24.3075 16.2031 24.031 16.2031 23.6914V19.2607C16.2033 18.9212 16.4788 18.6456 16.8184 18.6455ZM21.6152 18.6455C22.9724 18.6455 24.0771 19.7503 24.0771 21.1074V23.6914C24.0771 24.031 23.8015 24.3075 23.4619 24.3076C23.1222 24.3076 22.8467 24.0311 22.8467 23.6914V21.1074C22.8467 20.4289 22.2938 19.876 21.6152 19.876C20.9368 19.8762 20.3848 20.429 20.3848 21.1074V23.6914C20.3848 24.0311 20.1092 24.3075 19.7695 24.3076C19.4298 24.3076 19.1543 24.0311 19.1543 23.6914V21.1074C19.1543 19.7504 20.2583 18.6457 21.6152 18.6455ZM16.8164 15.9688C17.257 15.9688 17.6162 16.3273 17.6162 16.7695C17.6162 17.2101 17.257 17.5684 16.8164 17.5684C16.3783 17.5683 16.0189 17.2124 16.0156 16.7734C16.0158 16.3305 16.3725 15.9721 16.8105 15.9688H16.8164Z" fill="#090909"/>
</svg>
