<svg width="112" height="19" viewBox="0 0 112 19" fill="none" xmlns="http://www.w3.org/2000/svg">
<path d="M108.582 15.6071V14.7651H109.261C109.551 14.7651 109.854 14.8239 109.854 15.187C109.854 15.5501 109.551 15.6071 109.261 15.6071H108.582ZM110.168 15.151C110.144 14.6493 109.74 14.5589 109.327 14.5589H108.291V16.929H108.582V15.8366H109.115L109.793 16.929H110.14L109.424 15.8329C109.875 15.8143 110.191 15.6562 110.168 15.151ZM109.082 17.5901C108.069 17.5901 107.301 16.7362 107.301 15.7479C107.301 14.7573 108.07 13.9028 109.082 13.9028C110.093 13.9028 110.863 14.7573 110.863 15.7479C110.863 16.736 110.093 17.5901 109.082 17.5901ZM109.082 13.623C107.909 13.623 106.959 14.5734 106.959 15.748C106.959 16.9203 107.909 17.8701 109.082 17.8701C109.361 17.8701 109.637 17.8152 109.894 17.7086C110.152 17.602 110.386 17.4457 110.583 17.2486C110.78 17.0516 110.936 16.8176 111.043 16.5602C111.149 16.3027 111.204 16.0267 111.204 15.748C111.204 14.5735 110.255 13.623 109.082 13.623Z" fill="white"/>
<path d="M42.2986 7.9297C42.7271 13.4052 38.2332 18.2323 32.7905 18.4001C27.0382 18.5781 22.8756 13.5575 24.0118 7.9297H42.2985M41.7276 5.42661C40.384 1.97421 37.0562 -0.0921119 33.4097 0.00315752C29.8093 0.0959724 26.5247 2.24805 24.8922 5.42661H41.7276Z" fill="white"/>
<path d="M5.58253 7.92953H15.4117C16.0907 7.92953 16.6804 7.37817 16.7433 6.701C16.8081 5.99454 16.2759 5.42629 15.5663 5.42629H3.80156L5.29549 1.07796C5.42375 0.707003 5.78212 0.442673 6.17823 0.442673H16.5354C20.0621 0.442673 22.7103 3.34433 22.3837 6.85672C22.0721 10.2205 19.141 12.8938 15.7659 12.8949L9.29558 12.8974C8.6939 12.898 8.17552 13.2761 7.99157 13.8112L6.81643 17.2327C6.68879 17.6042 6.33164 17.869 5.93615 17.869H1.16654C0.32215 17.869 -0.199147 17.066 0.0722406 16.2761L2.07137 10.4602C2.58131 8.9752 4.00038 7.92953 5.58253 7.92953ZM96.7962 17.869L95.6936 13.7442C95.554 13.2229 95.1153 12.8969 94.5814 12.8969L93.0533 12.8975C92.4516 12.8981 91.9332 13.2763 91.7492 13.8114L90.5747 17.2327C90.4465 17.6042 90.0893 17.869 89.6938 17.869H84.9242C84.0798 17.869 83.5585 17.066 83.8305 16.2761L85.829 10.4602C86.339 8.9752 87.758 7.92953 89.3402 7.92953H99.1694C99.8484 7.92953 100.439 7.37817 100.501 6.701C100.566 5.99454 100.034 5.42629 99.324 5.42629H87.5592L89.0538 1.07796C89.1814 0.707003 89.5398 0.442673 89.9359 0.442673H100.294C103.82 0.442673 106.468 3.34433 106.141 6.85672C105.921 9.22925 104.399 11.2572 102.337 12.2478L103.843 17.869H96.7962Z" fill="white"/>
<path d="M53.5356 5.42622L54.8672 1.55131C55.0559 1.0024 54.6874 0.442596 54.0995 0.442596H48.8691C48.4736 0.442596 48.1146 0.706927 47.987 1.07788L46.4924 5.42622H53.5356ZM57.8839 17.8688H43.8574C43.013 17.8688 42.4923 17.0658 42.7637 16.2759L45.6318 7.9293H52.6749L51.6922 10.7891C51.4206 11.5788 51.9534 12.382 52.7966 12.382H58.7725C59.6175 12.382 60.1557 13.1832 59.8847 13.9718L58.7634 17.2324C58.6358 17.604 58.2793 17.8688 57.8838 17.8688M74.0828 0.776423L70.2073 5.42622H80.646L80.2552 1.17208C80.2156 0.743593 79.8645 0.44275 79.436 0.44275H74.7953C74.5183 0.44275 74.2583 0.565634 74.0827 0.776576M75.4928 17.8688H80.7699C81.3003 17.8688 81.7444 17.3858 81.6964 16.8536L80.8759 7.9293H68.121L61.5218 15.8474C60.8531 16.6504 61.321 17.8688 62.3938 17.8688H66.5857C66.8626 17.8688 67.1245 17.7321 67.2987 17.5211L70.7631 13.3664C71.0155 13.0631 71.3929 12.896 71.7896 12.896H73.2051C73.82 12.896 74.3252 13.3221 74.3821 13.9394L74.6751 17.124C74.6923 17.3283 74.7861 17.5186 74.9377 17.6567C75.0893 17.7948 75.2875 17.8706 75.4925 17.8688" fill="white"/>
</svg>
