<svg width="102" height="31" viewBox="0 0 102 31" fill="none" xmlns="http://www.w3.org/2000/svg">
<path d="M3.39694 0.0548143C2.87722 0.144142 2.08139 0.501453 1.7322 0.801919C0.936368 1.46782 0.668384 3.14068 1.19623 4.16389C1.42361 4.61865 2.2032 5.30891 2.98279 5.75555C3.3401 5.96669 3.93291 6.30776 4.2821 6.51078C5.10229 6.98178 5.56517 7.4203 5.63826 7.79385C5.80879 8.71961 5.12665 9.33678 4.25774 9.04444C3.77049 8.88202 3.62432 8.61404 3.5756 7.84257L3.53499 7.19292H2.2032H0.863281L0.895764 8.06183C0.920126 8.80894 0.96073 9.00383 1.13939 9.35302C1.69159 10.4087 2.79601 10.9203 4.54196 10.9284C6.92945 10.9284 8.09071 10.0595 8.23688 8.15928C8.37494 6.39709 7.84709 5.68246 5.4596 4.39127C4.80182 4.03396 4.10344 3.59544 3.90855 3.40867C3.58372 3.1082 3.55936 3.05135 3.55936 2.66968C3.55936 1.96318 4.10344 1.56527 4.78558 1.75204C5.24034 1.88197 5.37839 2.09311 5.42712 2.71841L5.46772 3.25437L6.75891 3.27873L8.05011 3.3031L8.0095 2.56411C7.90393 0.818161 6.95381 0.0710554 4.77746 0.00609016C4.26586 -0.0101509 3.64056 0.00609016 3.39694 0.0548143Z" fill="white"/>
<path d="M36.5143 0.169898C35.5886 0.405398 34.9633 0.852037 34.5979 1.5423C34.3948 1.92397 34.3786 2.03766 34.3786 2.89033C34.3786 4.01099 34.476 4.25461 35.215 4.92863C35.6617 5.34279 35.9946 5.55393 37.635 6.49593C38.8044 7.16183 39.1617 7.68155 38.9668 8.39617C38.8531 8.82657 38.512 9.06207 38.0086 9.06207C37.2533 9.06207 36.9366 8.66416 36.9366 7.72216V7.19431H35.5886H34.2324L34.273 8.02262C34.2974 8.4855 34.3624 8.96462 34.4273 9.10268C34.9795 10.337 36.0758 10.8892 37.9517 10.8811C39.8113 10.873 40.9726 10.2639 41.3786 9.1108C41.5735 8.54235 41.5817 6.96693 41.3868 6.52841C41.0701 5.82191 40.1362 5.08293 38.4796 4.22213C38.0573 4.00287 37.5375 3.65368 37.3264 3.45066C36.9691 3.10959 36.9366 3.05275 36.9366 2.69544C36.9366 2.22444 37.0341 2.03766 37.3427 1.87525C37.7324 1.67223 38.1953 1.72095 38.4958 1.98894C38.7313 2.19195 38.7557 2.27316 38.7881 2.7604L38.8206 3.29637H40.0793H41.338L41.3056 2.57363C41.2812 1.97269 41.2325 1.76968 41.0295 1.37988C40.7615 0.843917 40.2661 0.454123 39.5921 0.242984C39.0074 0.0562077 37.1396 0.015604 36.5143 0.169898Z" fill="white"/>
<path d="M67.8366 0.103597C66.7322 0.347218 65.9526 0.899426 65.5953 1.68713L65.4004 2.11753V5.40642V8.69531L65.6278 9.15819C66.1556 10.222 67.2357 10.7255 69.0141 10.7255C70.4271 10.7174 71.5072 10.3194 72.0594 9.5967C72.4979 9.02013 72.5872 8.50041 72.5872 6.5758V4.83797H70.8007H69.0141V5.56883V6.2997H69.542H70.0698V7.08741C70.0698 8.02129 69.9805 8.39484 69.7044 8.6547C69.4364 8.90644 68.7461 8.97141 68.3807 8.78463C67.8853 8.53289 67.8772 8.45981 67.8772 5.43078C67.8772 2.97833 67.8934 2.6535 68.0234 2.40176C68.2102 2.02008 68.6649 1.80083 69.1197 1.86579C69.7368 1.96324 69.9886 2.29619 69.9886 3.02705V3.53866H71.296H72.6116L72.571 2.81591C72.4573 0.915668 71.296 0.0305099 68.9329 0.0548725C68.4213 0.062993 67.9259 0.0792341 67.8366 0.103597Z" fill="white"/>
<path d="M11.8037 0.469076C11.7144 0.826387 9.97656 10.3033 9.97656 10.4088C9.97656 10.4981 10.2445 10.5225 11.3408 10.5225H12.7051L13.3873 5.99116C13.7608 3.50622 14.0856 1.39484 14.1019 1.30551C14.1425 1.16746 15.4824 9.94594 15.4986 10.3763C15.4986 10.5063 15.6205 10.5225 16.8792 10.5225C17.6425 10.5225 18.2597 10.5063 18.2597 10.4819C18.2597 10.4332 16.4975 0.85887 16.4244 0.50968L16.3757 0.290421H14.11H11.8443L11.8037 0.469076Z" fill="white"/>
<path d="M20.5101 2.58046C20.4776 3.84729 20.4289 6.14545 20.3964 7.6965L20.3477 10.5225H21.6145H22.8894V8.71159C22.8894 7.71275 22.9138 5.6176 22.9463 4.05843L22.995 1.2243L23.8558 5.8531L24.7166 10.4819L26.0403 10.5063C26.763 10.5144 27.3558 10.4981 27.3558 10.4657C27.3558 10.287 28.9962 1.52477 29.0612 1.38672C29.1018 1.28927 29.1343 3.12455 29.1343 5.86935L29.1424 10.5225H30.4498H31.7572L31.7085 9.15823C31.6842 8.41113 31.6436 6.81135 31.6192 5.60948C31.5948 4.3995 31.5542 2.71039 31.5299 1.8496L31.4811 0.290421L29.4022 0.306662L27.3233 0.331024L26.698 4.21272C26.3489 6.34847 26.0565 8.11878 26.0403 8.13502C26.0159 8.15126 25.8941 7.461 25.756 6.60021C25.618 5.74754 25.3256 3.9691 25.1145 2.66167L24.7328 0.290421H22.6458H20.5588L20.5101 2.58046Z" fill="white"/>
<path d="M44.002 4.47287C44.002 8.53323 44.0101 8.66316 44.1725 9.1098C44.6354 10.3523 45.8941 10.9207 47.9324 10.8233C49.7027 10.7421 50.6447 10.1492 51.0182 8.89866C51.1319 8.52511 51.1482 7.89169 51.1482 4.37542V0.290709H49.8489H48.5495V4.35106V8.41142L48.3303 8.65504C48.0785 8.93926 47.6644 9.06107 47.2665 8.97174C46.9173 8.89866 46.698 8.69564 46.6006 8.33833C46.5519 8.15967 46.5194 6.50305 46.5194 4.16429V0.290709H45.2607H44.002V4.47287Z" fill="white"/>
<path d="M53.9883 5.36659V10.442H55.2551H56.5219L56.4732 6.72275C56.4407 4.68445 56.4001 2.79233 56.3758 2.52435C56.3514 2.232 56.3595 2.06959 56.4083 2.11831C56.4489 2.15891 57.0417 4.05104 57.7238 6.31672L58.9744 10.442H60.7853H62.5962V5.36659V0.291152H61.3294H60.0707L60.1113 2.13455C60.2169 6.36544 60.2493 8.44434 60.2169 8.41186C60.1925 8.3875 59.6971 6.72275 59.1043 4.71694C58.5196 2.703 57.9837 0.892084 57.9187 0.672825L57.7888 0.291152H55.8885H53.9883V5.36659Z" fill="white"/>
<path d="M81.0725 17.1245L80.098 17.7904L80.0737 18.4644L80.0493 19.1303H79.3266H78.5957V19.983V20.8357H79.3184H80.0412L80.0737 23.1257C80.1143 25.1803 80.1305 25.4807 80.2848 25.9517C80.6665 27.1292 81.5679 27.6571 83.1839 27.6571H83.793V26.7232V25.7893H83.3463C83.0946 25.7893 82.7697 25.7325 82.6073 25.6675C82.1282 25.4645 82.0876 25.2696 82.0876 22.9065V20.8357H82.9403H83.793V19.983V19.1303H82.9403H82.0876L82.0714 17.7904L82.047 16.4505L81.0725 17.1245Z" fill="white"/>
<path d="M4.08723 17.0109C2.99905 17.2789 2.04081 17.8555 1.32619 18.6594C0.80646 19.2522 0.262373 20.3891 0.0999585 21.2418C-0.135542 22.4355 0.0512343 23.8242 0.595322 24.8961C1.90276 27.4866 5.22412 28.5586 7.94456 27.2755C8.41556 27.0481 8.69979 26.837 9.20327 26.3254C10.2427 25.2778 10.665 24.2465 10.7624 22.5574L10.8112 21.6478H8.03389H5.26473V22.6223V23.5968H6.92947C8.01765 23.5968 8.59422 23.6293 8.59422 23.678C8.59422 23.8485 8.3506 24.3439 8.09885 24.6931C7.51416 25.5052 6.5478 25.9112 5.31345 25.8544C4.69628 25.83 4.48514 25.7813 4.0385 25.5701C2.70671 24.953 2.0002 23.8242 2.0002 22.3381C2.0002 21.2337 2.34127 20.4216 3.12898 19.6907C3.79488 19.0654 4.50138 18.7975 5.45962 18.7975C6.83202 18.7975 7.73342 19.3253 8.56985 20.584C8.59422 20.6246 10.2996 19.6095 10.2996 19.5446C10.2996 19.5202 10.1128 19.2522 9.89353 18.9518C9.18703 18.0098 7.94456 17.2302 6.76706 16.9784C6.01183 16.816 4.79373 16.8323 4.08723 17.0109Z" fill="white"/>
<path d="M21.9941 22.2568V27.6571H22.9686H23.9431V22.2568V16.8565H22.9686H21.9941V22.2568Z" fill="white"/>
<path d="M93.5352 22.2568V27.6571H94.5015H95.476L95.5004 24.9529C95.5247 22.3137 95.5329 22.2487 95.7196 21.8264C96.0688 21.0631 96.6779 20.6733 97.5305 20.6733C98.367 20.6814 98.9517 21.0468 99.2765 21.7696C99.4064 22.0538 99.4227 22.4111 99.447 24.8717L99.4714 27.6571H100.446H101.412V24.7093C101.412 22.5167 101.38 21.664 101.299 21.3635C101.039 20.3728 100.438 19.6338 99.5607 19.2278C99.1384 19.0248 99.0085 19.0085 98.1234 19.0085C97.2382 19.0085 97.1083 19.0248 96.686 19.2278C96.4342 19.3415 96.0607 19.5932 95.8577 19.78L95.4841 20.1292V18.4888V16.8565H94.5096H93.5352V22.2568Z" fill="white"/>
<path d="M55.2395 17.6848C55.3451 18.0584 56.0272 20.454 56.7581 23.0039L58.0818 27.6571H59.105H60.1201L61.2164 23.9622C61.8173 21.932 62.3289 20.2672 62.3533 20.2672C62.3776 20.2672 62.8892 21.932 63.4902 23.9622L64.5864 27.6571H65.5772H66.5679L66.7303 27.1049C66.8196 26.8044 67.4855 24.4575 68.2083 21.8914C68.931 19.3252 69.5401 17.1732 69.5563 17.1164C69.5888 17.0433 69.3614 17.019 68.59 17.019H67.5749L66.6247 20.5677C66.105 22.5248 65.6503 24.1895 65.6178 24.2707C65.5853 24.3601 65.1711 23.0932 64.4646 20.7139L63.3683 17.019H62.3776H61.3869L61.2326 17.5224C61.1433 17.8067 60.6398 19.4714 60.1119 21.2336C59.4785 23.3531 59.1375 24.3763 59.0968 24.2707C59.0644 24.1895 58.6096 22.5248 58.0818 20.5677L57.1316 17.019H56.0922H55.0527L55.2395 17.6848Z" fill="white"/>
<path d="M15.0173 19.01C14.1646 19.1968 13.515 19.5541 12.9059 20.1632C12.0289 21.0565 11.6797 21.9822 11.6797 23.4115C11.6797 24.8245 12.102 25.8233 13.0683 26.7166C13.9129 27.5043 14.9523 27.8778 16.0974 27.7966C16.9419 27.7479 17.5266 27.5205 18.16 27.0089L18.6635 26.6029V27.1307V27.6586H19.638H20.6125V23.3546V19.0506H19.638H18.6635V19.5379C18.6635 19.8059 18.6391 20.0251 18.6148 20.0251C18.5904 20.0251 18.4036 19.879 18.2006 19.7003C17.8027 19.3511 17.1612 19.075 16.4709 18.9613C15.8943 18.8639 15.6507 18.8801 15.0173 19.01ZM17.218 20.9346C17.7053 21.1458 18.3468 21.8198 18.5498 22.3395C18.6554 22.6156 18.7041 22.9486 18.7041 23.3952C18.7041 23.9718 18.6716 24.118 18.4361 24.589C17.9732 25.531 17.2424 25.9776 16.1867 25.9857C15.6345 25.9938 15.4721 25.9614 15.0741 25.7665C13.515 25.0031 13.1008 22.8836 14.2621 21.5599C14.9605 20.7641 16.1948 20.5042 17.218 20.9346Z" fill="white"/>
<path d="M28.488 18.9779C27.8059 19.0915 26.7989 19.6194 26.2629 20.1554C25.4996 20.9187 24.9961 22.1937 24.9961 23.3549C24.9961 24.0289 25.2072 24.8735 25.5321 25.5394C26.6771 27.8619 29.8198 28.5765 31.6226 26.9118L31.9799 26.5788V27.1229V27.6589H32.995H34.0101L33.9938 23.3712L33.9695 19.0915H32.995H32.0205L31.9961 19.5625L31.9718 20.0335L31.6876 19.7899C31.2815 19.4326 30.6643 19.1403 30.0391 19.0022C29.4462 18.8804 29.1458 18.8723 28.488 18.9779ZM30.4532 20.8862C31.379 21.1867 32.0936 22.2343 32.0936 23.3143C32.1017 24.0939 31.8987 24.6299 31.4033 25.1739C30.8674 25.7586 30.3476 25.986 29.5437 25.9941C29.0564 25.9941 28.8453 25.9535 28.488 25.783C27.9195 25.515 27.4648 25.0603 27.1968 24.4918C27.0181 24.1183 26.9857 23.9315 26.9857 23.3549C26.9857 22.5347 27.1481 22.1043 27.6759 21.5359C28.3905 20.7644 29.3488 20.537 30.4532 20.8862Z" fill="white"/>
<path d="M71.9107 19.0825C70.449 19.5047 69.3446 20.6579 68.9548 22.1602C68.7924 22.818 68.7924 23.9793 68.9629 24.6452C69.3446 26.1231 70.4653 27.2681 71.9676 27.6985C72.3168 27.8041 72.6497 27.8285 73.2263 27.8041C73.8922 27.7797 74.0871 27.7391 74.55 27.5199C74.8504 27.3818 75.2565 27.1139 75.4595 26.9271L75.833 26.5779V27.122V27.6579H76.8075H77.782V23.3946V19.1312H76.8075H75.833V19.6184V20.1057L75.3945 19.7484C74.7367 19.2124 74.1764 19.0256 73.1532 19.0013C72.601 18.985 72.1625 19.0175 71.9107 19.0825ZM74.5012 21.0233C75.6057 21.5836 76.1497 22.8992 75.7924 24.1254C75.362 25.6034 73.9572 26.3586 72.4954 25.8957C71.8783 25.7008 71.1311 24.9537 70.92 24.3284C70.6926 23.6626 70.717 22.8505 70.985 22.2739C71.2448 21.6973 71.8133 21.137 72.3655 20.9259C72.9664 20.6823 73.9247 20.7229 74.5012 21.0233Z" fill="white"/>
<path d="M87.4723 19.0918C86.0593 19.4735 84.9143 20.5535 84.427 21.9584C84.2808 22.3969 84.2402 22.673 84.2402 23.3958C84.2402 24.1185 84.2808 24.3946 84.427 24.8331C84.9061 26.2299 85.9943 27.2612 87.4398 27.6916C87.7159 27.7728 88.1869 27.8216 88.6741 27.8216C90.0141 27.8216 91.086 27.3749 91.9143 26.4654C92.3609 25.9782 92.7832 25.2392 92.6695 25.1417C92.5071 25.0037 90.9804 24.4109 90.9561 24.4758C90.8667 24.76 90.4039 25.3285 90.1034 25.5396C88.398 26.709 86.1486 25.4909 86.1486 23.3958C86.1486 22.6487 86.4003 22.0396 86.9119 21.5199C88.0082 20.4236 89.9166 20.6185 90.7206 21.9016C90.8505 22.1208 90.9804 22.2995 90.9967 22.2995C91.0454 22.2995 92.4178 21.731 92.5883 21.6336C92.7183 21.5686 92.7183 21.528 92.5071 21.1382C92.0199 20.2206 90.9073 19.376 89.8435 19.0918C89.2507 18.9375 88.0407 18.9375 87.4723 19.0918Z" fill="white"/>
<path d="M34.708 19.1466C34.7486 19.2034 35.447 20.1617 36.2591 21.2661C37.1036 22.403 37.7289 23.3206 37.6965 23.3693C37.664 23.4181 36.9737 24.3601 36.1616 25.4564C35.3496 26.5527 34.6593 27.5028 34.6268 27.5515C34.5781 27.6327 34.8298 27.6571 35.7718 27.6571L36.9737 27.649L37.9807 26.2278C38.5329 25.4482 39.012 24.8311 39.0445 24.8717C39.0689 24.9042 39.548 25.5457 40.0921 26.2928L41.0909 27.6571H42.2603C42.9018 27.6571 43.4297 27.6408 43.4297 27.6165C43.4297 27.5921 42.7151 26.6176 41.838 25.4482C40.3844 23.5155 40.2464 23.3125 40.3438 23.1582C40.4007 23.0689 41.0828 22.1269 41.8543 21.0631C42.6338 19.9911 43.2673 19.106 43.2673 19.0816C43.2673 19.0654 42.7475 19.0573 42.1141 19.0654L40.9529 19.0897L40.019 20.4053C39.5074 21.128 39.0607 21.7208 39.0283 21.729C39.0039 21.729 38.5979 21.2092 38.1431 20.5677C36.925 18.8786 37.193 19.0491 35.8206 19.0491C34.9029 19.0491 34.6593 19.0735 34.708 19.1466Z" fill="white"/>
<path d="M43.5938 19.1474C43.5938 19.2043 44.3652 21.0233 45.2991 23.1834C46.2411 25.3517 47.0044 27.1626 47.0044 27.2113C47.0044 27.2681 46.6959 28.0396 46.3223 28.941C45.9488 29.8424 45.6158 30.6464 45.5833 30.7438C45.5346 30.8981 45.559 30.9062 46.5334 30.9062H47.5323L49.9117 25.0756C51.2191 21.876 52.2829 19.2043 52.2829 19.1474C52.2829 19.0662 52.0555 19.05 51.2922 19.0662L50.2933 19.0906L49.6356 20.7553C49.2701 21.673 48.7666 22.9642 48.5068 23.6219C48.2469 24.2797 48.0195 24.8076 48.0033 24.7913C47.9871 24.767 47.443 23.4839 46.8014 21.9247L45.632 19.0906L44.617 19.0662C43.8211 19.05 43.5938 19.0662 43.5938 19.1474Z" fill="white"/>
</svg>
