<svg width="108" height="23" viewBox="0 0 108 23" fill="none" xmlns="http://www.w3.org/2000/svg">
<path d="M18.5276 12.2686C18.9266 12.9668 19.151 13.8396 19.151 14.862V14.9119C19.151 15.9592 18.9515 16.9067 18.5276 17.7546C18.1037 18.6024 17.5052 19.3006 16.7571 19.8991C15.9841 20.4726 15.0615 20.9215 13.9643 21.2457C12.8671 21.5698 11.6452 21.7194 10.2987 21.7194C8.25389 21.7194 6.3338 21.4451 4.56333 20.8716C2.79286 20.2981 1.27175 19.4502 0 18.3281L3.59081 14.064C4.68801 14.9119 5.83507 15.5103 7.03201 15.8594C8.22895 16.2335 9.42589 16.408 10.6228 16.408C11.2462 16.408 11.6701 16.3332 11.9444 16.1836C12.2187 16.034 12.3434 15.8096 12.3434 15.5602V15.5103C12.3434 15.2111 12.1439 14.9867 11.745 14.7872C11.346 14.5877 10.6228 14.3882 9.55057 14.1887C8.42844 13.9643 7.35618 13.69 6.3338 13.3907C5.31141 13.0915 4.41371 12.6925 3.64069 12.2187C2.86766 11.745 2.24426 11.1465 1.79541 10.4233C1.29668 9.65031 1.07226 8.75261 1.07226 7.70529V7.65542C1.07226 6.70784 1.24681 5.81014 1.62085 4.98724C1.9949 4.16435 2.54349 3.4412 3.26664 2.84273C3.98979 2.21932 4.8875 1.74553 5.93482 1.39643C6.98214 1.04732 8.20401 0.872767 9.60044 0.872767C11.5455 0.872767 13.2661 1.09719 14.7124 1.57098C16.1836 2.01983 17.4803 2.71805 18.6523 3.64069L15.3856 8.15414C14.4381 7.45593 13.4157 6.9572 12.3684 6.63303C11.2961 6.30886 10.2987 6.15924 9.37602 6.15924C8.87729 6.15924 8.50325 6.23405 8.27882 6.38367C8.02946 6.53329 7.92972 6.73278 7.92972 6.98214V7.03201C7.92972 7.30631 8.10427 7.53074 8.47831 7.73023C8.85236 7.92972 9.55057 8.1292 10.5979 8.3287C11.8696 8.55312 13.0416 8.82742 14.089 9.15159C15.1363 9.47576 16.034 9.89968 16.807 10.3984C17.5302 10.947 18.1286 11.5455 18.5276 12.2686ZM18.777 6.93227H24.6868V21.3454H31.3947V6.93227H37.3046V1.24681H18.777V6.93227ZM96.6777 0L85.8803 21.3454H92.3139L96.6777 12.7175L101.066 21.3454H107.5L96.6777 0ZM66.6046 0L77.4269 21.3454H70.9934L66.6296 12.7175L62.2657 21.3454H57.9019H55.8322H50.2465L46.4562 15.6101H46.4063H45.0348V21.3454H38.327V1.24681H48.077C49.8724 1.24681 51.3437 1.4463 52.5157 1.87022C53.6627 2.2692 54.6103 2.84273 55.3085 3.54094C55.9319 4.13941 56.3808 4.83763 56.68 5.61065C56.9792 6.38367 57.1289 7.28137 57.1289 8.30376V8.35363C57.1289 9.82487 56.7798 11.0717 56.0566 12.0691C55.3584 13.0915 54.3859 13.8895 53.164 14.4879L56.6551 19.5749L66.6046 0ZM50.446 8.80248C50.446 8.15414 50.2215 7.68035 49.7477 7.35618C49.2989 7.03201 48.6755 6.88239 47.8775 6.88239H44.96V10.8223H47.8526C48.6506 10.8223 49.2989 10.6478 49.7477 10.2987C50.1966 9.94955 50.446 9.47576 50.446 8.85236V8.80248ZM86.0299 1.24681L81.6412 9.89968L77.2524 1.24681H70.8188L81.6412 22.5922L92.4385 1.24681H86.0299Z" fill="white"/>
</svg>
