<svg width="112" height="30" viewBox="0 0 112 30" fill="none" xmlns="http://www.w3.org/2000/svg">
<path d="M13.0667 29.0441H7.45159L17.2951 6.51993H22.9101L13.0667 29.0441ZM8.87248 22.5242H3.25739L13.1009 0H18.716L8.87248 22.5242ZM24.6703 18.613H19.0553L25.1195 4.73113H30.7353L24.6703 18.613ZM8.82116 6.51993L5.61507 13.8562H0L3.20606 6.51993H8.82116Z" fill="white"/>
<path d="M82.2958 17.391C84.8364 17.391 86.406 18.6929 86.6695 21.0199H84.1458C83.9844 20.1618 83.212 19.6196 82.2455 19.6196C81.3935 19.6196 80.8379 20.0166 80.8372 20.6271C80.8372 22.4546 86.7498 21.1014 86.7498 25.572C86.7498 27.8649 84.913 29.2017 82.5382 29.2017C79.7217 29.2015 77.9659 27.5871 77.7542 25.0124H80.278C80.4393 26.2335 81.2103 26.9765 82.5382 26.9765C83.4413 26.9765 84.1414 26.5965 84.1414 25.7382C84.1406 23.7275 78.2463 24.9781 78.2463 20.7596C78.2463 18.7487 80.0823 17.3954 82.2922 17.3952L82.2958 17.391ZM39.7119 17.5442C41.6077 17.5442 43.1476 19.0948 43.1476 21.0035C43.1473 22.912 41.6075 24.462 39.7119 24.462H36.9892V29.0434H34.4611V17.5442H39.7119ZM52.9953 19.8628H47.0744V22.1435H51.8332V24.462H47.0744V26.7249H52.9953V29.0434H44.5427V17.5442H52.9953V19.8628ZM61.579 17.5442L65.9008 29.0434H63.0968L62.2321 26.7206H57.9359L57.0704 29.0434H54.352L58.6909 17.5442H61.579ZM70.0436 21.8098L73.9887 17.5442H77.4104L73.0089 22.2069L77.7206 29.0434H74.569L71.2742 24.0563L70.0436 25.3582V29.0434H67.44V17.5442H70.0436V21.8098ZM58.7672 24.462H61.4307L60.0904 20.8281L58.7672 24.462ZM36.9935 22.1435H39.4873C40.1106 22.1434 40.6193 21.6352 40.6195 21.0035V20.9992C40.6195 20.3716 40.115 19.8586 39.4873 19.8584H36.9935V22.1435ZM105.885 4.58069C108.586 4.58069 110.449 6.04546 110.894 8.20179H108.222C107.866 7.34784 107.013 6.78438 105.885 6.78438C104.023 6.78453 102.734 8.21464 102.734 10.4647C102.734 12.7149 104.023 14.1456 105.983 14.1457C107.598 14.1413 108.659 12.8943 108.807 11.6475H105.622V9.32039H111.081V16.2295H108.697V15.0682C108.239 15.7726 107.128 16.3486 105.643 16.3486C102.687 16.3485 100.143 14.2776 100.143 10.4647C100.143 6.89944 102.458 4.58078 105.885 4.58069ZM78.3061 10.3285C78.9887 11.6392 79.3997 12.7411 79.3997 12.7496C79.3997 12.7411 79.3362 11.5578 79.3362 10.0847V4.73469H81.9191V16.2338H78.7675L75.74 10.6614C75.0531 9.342 74.6289 8.24027 74.6289 8.24027C74.6289 8.24027 74.7092 9.42297 74.7092 10.9045L74.7048 10.9002V16.2295H72.1055V4.73469H75.248L78.3061 10.3285ZM94.8584 10.3285C95.5418 11.6392 95.9484 12.7369 95.9528 12.7496C95.9528 12.7369 95.8893 11.5578 95.8893 10.0847V4.73469H98.4722V16.2338H95.3205L92.2931 10.6614C91.6105 9.35054 91.1812 8.24881 91.1812 8.24027C91.1812 8.24881 91.2622 9.43151 91.2622 10.9045V16.2295H88.6618V4.73469H91.8054L94.8584 10.3285ZM42.9437 7.04465H39.394V16.2295H36.7896V7.04465H33.2441V4.73469H42.9437V7.04465ZM49.7885 4.73469C51.6843 4.73469 53.2241 6.28458 53.2241 8.19318C53.2241 9.44428 52.5626 10.5378 51.5744 11.1441L51.5024 11.1869L54.4796 15.8966L58.6909 4.73469H61.5748L65.8965 16.2295H63.0926L62.2278 13.9111H57.9316L57.0704 16.2295H51.7527L48.8475 11.6517H47.0658V16.2295H44.5384V4.73469H49.7885ZM70.0401 16.2295H67.44V4.73469H70.0401V16.2295ZM86.5921 16.2295H83.9932V4.73469H86.5921V16.2295ZM58.7672 11.6517H61.4307L60.0904 8.01424L58.7672 11.6517ZM47.0744 9.32893H49.5682C50.1916 9.32893 50.7004 8.82089 50.7004 8.18895C50.7003 7.56131 50.1958 7.04896 49.5682 7.04896H47.0744V9.32893Z" fill="white"/>
</svg>
