<svg width="40" height="40" viewBox="0 0 40 40" fill="none" xmlns="http://www.w3.org/2000/svg">
<rect width="40" height="40" rx="6" fill="white"/>
<path d="M13.4118 26.5157L18.7335 23.1187L18.8805 23.0314C19.5785 22.6537 20.4215 22.6537 21.1195 23.0314L21.2665 23.1187L26.5882 26.5157V19.2401L13.4118 19.2144V26.5157ZM28 27.376L27.9908 27.512C27.9043 28.1283 27.2378 28.4933 26.6719 28.2344L26.5524 28.1692L20.5064 24.3081C20.1976 24.1109 19.8024 24.1109 19.4936 24.3081L13.4476 28.1692C12.8603 28.5441 12.1018 28.1723 12.0092 27.512L12 27.376V18.7429C12 18.2224 12.4225 17.8008 12.943 17.8018L27.0607 17.8293C27.5797 17.8303 28 18.2514 28 18.7705V27.376Z" fill="#090909"/>
<path d="M27.2941 14.5049C27.684 14.5049 28 14.8209 28 15.2108C28 15.6006 27.684 15.9166 27.2941 15.9166H12.7059C12.316 15.9166 12 15.6006 12 15.2108C12 14.8209 12.316 14.5049 12.7059 14.5049H27.2941Z" fill="#090909"/>
<path d="M27.2941 11.6816C27.684 11.6816 28 11.9977 28 12.3875C28 12.7773 27.684 13.0934 27.2941 13.0934H12.7059C12.316 13.0934 12 12.7773 12 12.3875C12 11.9977 12.316 11.6816 12.7059 11.6816H27.2941Z" fill="#090909"/>
</svg>
