<svg width="103" height="28" viewBox="0 0 103 28" fill="none" xmlns="http://www.w3.org/2000/svg">
<path d="M47.6916 0C48.8035 0 49.8983 0 51.0102 0C51.7457 0 52.4813 0 53.2168 0C53.2168 1.36848 53.2168 2.73696 53.2168 4.10544C53.2168 6.84241 53.2168 9.57937 53.2168 12.3163C54.0379 11.1189 55.2524 10.1097 56.7236 9.80175C58.4684 9.47674 60.4698 9.64779 61.8725 10.8281C62.8646 11.6321 63.4633 12.8295 63.7541 14.044C64.062 15.3099 64.062 16.6271 64.0449 17.9271C64.0449 18.2692 64.0449 18.5942 64.0449 18.9193C64.0449 19.9114 64.0449 20.9036 64.0449 21.9128V21.9299C64.0449 23.5379 64.0449 25.1287 64.0278 26.7367C62.9331 26.7196 61.8212 26.7367 60.7264 26.7367C59.9908 26.7367 59.2553 26.7367 58.5197 26.7367C58.5197 25.5051 58.5197 24.2905 58.5197 23.0589V23.0418C58.5197 21.3312 58.5197 19.6377 58.5197 17.9271C58.4684 16.9007 58.4 15.7717 57.6644 14.9678C56.638 13.9756 54.7051 14.2664 53.9524 15.4638C53.4392 16.2507 53.2682 17.1916 53.2682 18.1153C53.2682 19.4324 53.2682 20.7496 53.2682 22.0497C53.2682 23.6234 53.2682 25.1972 53.2682 26.7709C52.0536 26.788 50.8562 26.788 49.6417 26.788C49.0088 26.788 48.3758 26.788 47.7429 26.788C47.7258 25.0603 47.7429 23.3497 47.7429 21.622C47.7429 18.4916 47.76 15.3612 47.6916 12.2137V10.1781C47.6916 6.79109 47.7087 3.4041 47.6916 0ZM72.5295 9.71622C75.3007 9.35699 78.2772 10.0241 80.4154 11.8545C83.8366 14.7625 84.2129 20.3562 81.5615 23.88C78.3285 27.9854 71.5716 28.4131 67.603 25.1287C65.6529 23.5379 64.6265 21.0062 64.6779 18.5429C64.6265 16.4731 65.2766 14.3691 66.628 12.7782C68.0649 11.0334 70.2715 9.98991 72.5295 9.71622ZM100.087 12.1795C97.8635 10.0241 94.5279 9.27146 91.5001 9.75043C89.1224 10.1097 86.8302 11.3413 85.4617 13.3256C84.059 15.3099 83.6998 17.8587 84.0932 20.2022C84.4353 22.2549 85.5814 24.1879 87.292 25.4195C89.6698 27.1644 92.8515 27.6262 95.7082 26.9933C98.1544 26.463 100.429 24.9235 101.576 22.6826C103.269 19.3469 102.841 14.8651 100.087 12.1795ZM0 10.2807C1.26585 10.2978 2.53169 10.2978 3.79754 10.2978C4.56731 10.2978 5.35419 10.2978 6.12396 10.2978C6.63714 11.461 7.13321 12.6242 7.62928 13.7703C8.39906 15.5665 9.16883 17.3455 9.97281 19.1245C10.8623 17.0034 11.7689 14.8993 12.6927 12.7782V12.7611C13.069 11.9058 13.4282 11.0676 13.8046 10.2123H14.6256H14.6428C15.4467 10.2123 16.2678 10.2123 17.0718 10.2123C17.7389 11.7518 18.4061 13.2914 19.0903 14.848V14.8651V14.8822V14.8993L19.1074 14.9336L19.1245 14.9678C19.7232 16.3362 20.322 17.7047 20.9207 19.0903C21.7589 17.2429 22.5628 15.3783 23.3497 13.5138C23.8287 12.419 24.2906 11.3242 24.7695 10.2294C25.6077 10.2294 26.4459 10.2294 27.2841 10.2294C28.4815 10.2294 29.6789 10.2294 30.8593 10.2465C29.525 13.0006 28.1907 15.7375 26.8565 18.4745L26.8393 18.4916C25.5051 21.2457 24.1537 23.9997 22.8194 26.7538C21.6049 26.7709 20.3904 26.7709 19.1758 26.7538C18.7482 25.7617 18.3377 24.7695 17.9271 23.7945C17.106 21.8102 16.2678 19.8259 15.3612 17.8758C14.677 19.5522 13.9756 21.2286 13.2572 22.8879C12.7098 24.1879 12.1624 25.5051 11.615 26.8051C10.965 26.8222 10.3149 26.8222 9.6649 26.8051C9.11751 26.8051 8.58722 26.8051 8.03983 26.8051C7.35559 25.4195 6.68845 24.034 6.00421 22.6484L5.97 22.5799C3.9857 18.5087 1.96719 14.4033 0 10.2807ZM41.3966 11.7518C39.053 8.98066 34.4344 9.0833 31.8343 11.461C28.0026 14.8993 27.8828 21.4681 31.458 25.1287C33.1686 26.8907 35.8371 27.746 38.2662 27.1301C39.5491 26.8222 40.7636 26.0525 41.4137 24.8893C41.4137 25.1972 41.4137 25.5222 41.4137 25.8301C41.4137 26.138 41.4137 26.4459 41.4137 26.7709C42.6624 26.788 43.9283 26.788 45.177 26.788C45.7586 26.788 46.3402 26.788 46.9389 26.788C46.956 23.3668 46.9389 19.9456 46.9218 16.5244C46.9047 14.4375 46.8876 12.3505 46.8876 10.2465H45.8784C44.373 10.2465 42.8677 10.2465 41.3795 10.2465C41.3453 10.7426 41.3624 11.2558 41.3966 11.7518ZM76.4297 15.7717C75.4889 14.7967 73.9493 14.523 72.7006 14.9849C70.2715 15.8573 69.7755 19.3298 71.4347 21.1259C72.8203 22.6313 75.6257 22.4773 76.7718 20.7838C77.7811 19.2785 77.6613 17.106 76.4297 15.7717ZM91.8935 15.002C93.0568 14.5572 94.5108 14.677 95.4687 15.5152C96.9911 16.8152 97.1622 19.2785 95.9819 20.8522C94.6647 22.6313 91.483 22.5286 90.354 20.6128C89.2079 18.7653 89.7382 15.8573 91.8935 15.002ZM36.8293 15.0362C37.9754 14.6256 39.3438 14.7967 40.2847 15.5836C41.9098 16.9863 41.9782 19.7403 40.5071 21.2628C39.3096 22.4089 37.2569 22.4944 35.9226 21.5194C33.8357 19.8943 34.2291 15.9599 36.8293 15.0362Z" fill="white"/>
</svg>
