<svg width="40" height="40" viewBox="0 0 40 40" fill="none" xmlns="http://www.w3.org/2000/svg">
<rect width="40" height="40" rx="6" fill="white"/>
<path d="M20 12C20.5839 12 25.7463 12.0136 27.1992 12.4668C28.1997 12.7821 28.9812 13.6804 29.2383 14.8125C29.6242 16.4982 29.6279 19.8577 29.6279 20.001C29.6279 20.1463 29.6241 23.5037 29.2383 25.1895C28.9758 26.3251 28.1942 27.2224 27.1992 27.5332C25.7462 27.9872 20.5839 28 20 28C19.4158 28 14.256 27.9872 12.8008 27.5332C11.8005 27.2179 11.0198 26.3195 10.7627 25.1885C10.3768 23.5036 10.3721 20.1463 10.3721 20.001C10.3721 19.8577 10.3767 16.4971 10.7627 14.8115C11.0251 13.6751 11.8059 12.7777 12.8008 12.4668C14.256 12.0137 19.4158 12 20 12ZM20 13.3438C18.4709 13.3438 14.2687 13.4168 13.2012 13.749C12.6594 13.9183 12.2262 14.4407 12.0713 15.1123C11.7202 16.6501 11.7158 19.9678 11.7158 20.001C11.7158 20.0451 11.721 23.3525 12.0723 24.8896C12.2236 25.5578 12.6577 26.0799 13.2031 26.251C14.269 26.5832 18.471 26.6562 20 26.6562C21.5296 26.6562 25.7325 26.5832 26.7988 26.251C27.3406 26.0826 27.7747 25.5603 27.9297 24.8896C28.2802 23.3535 28.2851 20.0451 28.2852 20.001C28.2852 19.9678 28.2807 16.6491 27.9287 15.1104V15.1094C27.7773 14.4422 27.3423 13.921 26.7969 13.749C25.7322 13.4168 21.5296 13.3438 20 13.3438ZM17.876 16.7314C18.0837 16.6108 18.3402 16.6106 18.5479 16.7314L23.2002 19.4199C23.4089 19.5399 23.5361 19.7618 23.5361 20.001C23.5361 20.241 23.4089 20.463 23.2002 20.583L18.5479 23.2705C18.4441 23.3305 18.3282 23.3593 18.2119 23.3594C18.0956 23.3594 17.9798 23.3304 17.876 23.2705C17.6682 23.1505 17.54 22.9275 17.54 22.6875V17.3135C17.54 17.0743 17.6682 16.8515 17.876 16.7314ZM18.8838 21.5244L21.5205 20.001L18.8838 18.4775V21.5244Z" fill="#090909"/>
</svg>
