<svg width="107" height="24" viewBox="0 0 107 24" fill="none" xmlns="http://www.w3.org/2000/svg">
<path d="M95.1712 4.19995L92.3147 8.70175H96.6538V19.8H101.979V8.70175H106.87V4.19995H95.1712ZM79.2642 4.19995V19.8H84.6868V14.9868H90.2033V10.6188H84.6868V8.70115H90.4214L93.3186 4.19995H79.2649H79.2642ZM71.7364 19.8H77.2578V4.19995H71.7364V19.8ZM64.8794 4.19995L63.7205 12.537L61.6405 4.19995H57.2366L55.1561 12.537L54.0003 4.19995H48.6475L51.2902 19.8H57.1965L59.4389 12.7956L61.6819 19.8H67.5888L70.2303 4.19995H64.8794ZM34.9669 4.19995V8.70235H39.5938L34.5938 16.5138V19.8H47.9031V15.2988H41.5391L48.6475 4.19995H34.9675H34.9669Z" fill="white"/>
<path d="M19.0674 16.0002H16.2937L26.2944 0H4.08639C1.82915 0 0 1.791 0 4.0002C0 6.2094 1.82977 7.9998 4.08639 7.9998H6.8471L0.589948 18.0108C0.589948 18.0108 0 18.8526 0 20.0658C0 22.239 1.7995 24 4.01906 24H19.0674C21.3246 24 23.1538 22.209 23.1538 19.9998C23.1538 17.7912 21.3246 16.0002 19.0674 16.0002Z" fill="white"/>
</svg>
