<svg width="79" height="28" viewBox="0 0 79 28" fill="none" xmlns="http://www.w3.org/2000/svg">
<path d="M12.406 6.02756V0.514526H4.73498H1.36328L1.36328 6.02756H6.88462H12.406Z" fill="white"/>
<path d="M52.5524 0.463849L52.7356 4.32379H52.6358C52.451 3.18851 52.006 2.26396 51.2993 1.54849C50.3422 0.581461 49.0286 0.0963135 47.3599 0.0963135C45.3231 0.0963135 43.6905 0.813416 42.4635 2.24599C41.2365 3.6802 40.623 5.59792 40.623 7.99915V11.6745C40.623 14.1002 41.2365 16.0245 42.4635 17.4456C43.6905 18.8668 45.3215 19.5773 47.3599 19.5773C49.0286 19.5773 50.3422 19.0938 51.2993 18.1252C52.006 17.4113 52.451 16.4851 52.6358 15.3499H52.7356L52.662 19.2098V21.9704H58.0737V0.463849H52.5524ZM49.3509 14.7994C48.3202 14.7994 47.5284 14.5119 46.9771 13.9353C46.4241 13.3603 46.1493 12.5452 46.1493 11.4916V8.18373C46.1493 7.13013 46.4258 6.31502 46.9771 5.74003C47.5284 5.16504 48.3202 4.87591 49.3509 4.87591C50.3815 4.87591 51.1422 5.16504 51.7066 5.74003C52.271 6.31665 52.554 7.13176 52.554 8.18373V11.4916C52.554 12.5452 52.271 13.3603 51.7066 13.9353C51.1422 14.5119 50.357 14.7994 49.3509 14.7994Z" fill="white"/>
<path d="M52.5536 27.4851V21.9705H43.0896H41.5469L41.5485 27.4851H47.0698H52.5536Z" fill="white"/>
<path d="M17.9268 8.63791V6.02759H12.4054V8.63791H8.20921C5.55897 8.63791 3.52711 9.18349 2.11692 10.273C0.705095 11.3642 0 12.9258 0 14.9595C0 16.8462 0.595487 18.3409 1.78482 19.4435C2.97416 20.5461 4.58885 21.0982 6.62561 21.0982C8.44151 21.0982 9.89587 20.6506 10.9871 19.7571C11.7494 19.1315 12.2467 18.3539 12.4758 17.4228H12.5887L12.5887 20.7307H17.9268V8.63791ZM12.4054 13.9304C12.4054 14.8615 12.0553 15.6162 11.3568 16.1912C10.6566 16.7678 9.76827 17.0553 8.68854 17.0553C7.70697 17.0553 6.93317 16.8168 6.36876 16.3382C5.80436 15.8596 5.52297 15.2045 5.52297 14.3715C5.52297 13.5874 5.77982 12.9569 6.29678 12.4782C6.81211 11.9996 7.48612 11.7611 8.32209 11.7611H12.4087V13.9304H12.4054Z" fill="white"/>
<path d="M29.2918 21.0981C26.5614 21.0981 24.4265 20.3614 22.8887 18.8864C21.3509 17.413 20.582 15.3989 20.582 12.8441V0.463867H26.1181V12.8082C26.1181 13.9385 26.388 14.8043 26.9295 15.4054C27.471 16.0082 28.2579 16.3087 29.2918 16.3087C30.3258 16.3087 31.0816 16.0082 31.6345 15.4054C32.1875 14.8043 32.4656 13.9385 32.4656 12.8082V0.463867H38.0016V12.8441C38.0016 15.4234 37.2262 17.444 35.677 18.906C34.1277 20.368 31.9993 21.0981 29.2918 21.0981Z" fill="white"/>
<path d="M77.4308 3.87954C76.6996 2.65442 75.6706 1.7021 74.3454 1.02093C73.0187 0.339766 71.4383 0 69.6061 0C67.7738 0 66.2229 0.339766 64.8847 1.02093C63.5465 1.7021 62.511 2.65442 61.7797 3.87954C61.0484 5.10466 60.6836 6.53397 60.6836 8.16746V12.9928C60.6836 14.6263 61.0484 16.0556 61.7797 17.2807C62.511 18.5058 63.5449 19.4582 64.8847 20.1393C66.2229 20.8189 67.7967 21.1603 69.6061 21.1603C71.4154 21.1603 73.0203 20.8205 74.3454 20.1393C75.6706 19.4582 76.6996 18.5058 77.4308 17.2807C78.1621 16.0556 78.5269 14.6263 78.5269 12.9928V8.16746C78.5269 6.53397 78.1605 5.10466 77.4308 3.87954ZM72.9516 12.9928C72.9516 14.0578 72.6669 14.8795 72.096 15.461C71.5251 16.0425 70.6956 16.3333 69.6044 16.3333C68.5133 16.3333 67.7149 16.0425 67.1325 15.461C66.5501 14.8795 66.2589 14.0562 66.2589 12.9928V8.16746C66.2589 7.07956 66.5501 6.24974 67.1325 5.67965C67.7149 5.1112 68.5394 4.82534 69.6044 4.82534C70.6694 4.82534 71.5251 5.10956 72.096 5.67965C72.6653 6.24974 72.9516 7.07792 72.9516 8.16746V12.9928Z" fill="white"/>
</svg>
